<svg version="1.2" xmlns="http://www.w3.org/2000/svg" viewBox="0 0 300 223" width="300" height="300"><defs><clipPath clipPathUnits="userSpaceOnUse" id="cp1"><path d="m42 13.44h200v85h-200z"/></clipPath><clipPath clipPathUnits="userSpaceOnUse" id="cp2"><path d="m50.58 13.69h200v84.98h-200z"/></clipPath><clipPath clipPathUnits="userSpaceOnUse" id="cp3"><path d="m49.33 13.33h201.34v85.34h-201.34z"/></clipPath><clipPath clipPathUnits="userSpaceOnUse" id="cp4"><path d="m50.58 13.69h200v84.75h-200z"/></clipPath></defs><style>.a{fill:#accbf5}.b{fill:#004aad}</style><g clip-path="url(#cp1)"><path class="a" d="m241.9 61.1q0 0-0.7 0.1-0.6 0.1-1.8 0.3c-0.9 0-1.9 0.1-3.1 0.2q-1.9 0-4.3-0.3-0.5-0.1-1.2-0.2-0.1-0.1-0.3-0.1l-0.3-0.1q-0.3 0-0.6-0.1-1.3-0.3-2.7-0.8-1.4-0.5-2.8-1.2-1.5-0.8-3-1.7-0.7-0.5-1.5-1-0.8-0.5-1.7-0.9c-0.6-0.3-1.3-0.6-2-0.8q-0.3 0-0.6 0-0.2 0-0.3 0h-0.3q-0.1 0-0.2 0h-0.1q-0.2 0-0.4 0.1h-0.2-0.1c-0.2 0.1-0.2 0.1-0.2 0.1q-0.6 0.2-1.2 0.5-0.5 0.3-0.9 0.7-0.5 0.4-0.9 0.8-0.4 0.5-0.7 1c-0.9 1.3-1.5 2.8-2 4.3-0.5 1.5-0.8 3-1.2 4.6-0.4 1.6-0.7 3.2-1 4.8q-0.2 0.6-0.3 1.2-0.1 0.2-0.1 0.3-0.1-0.2-0.2-0.5-0.2-0.6-0.4-1.2-0.3-1.3-0.6-2.6c-0.7-3.5-1.2-7.3-1.9-11.2q-0.4-3-1-6.1-0.3-1.5-0.7-3.1-0.1-0.8-0.4-1.6c-0.2-0.5-0.3-1.1-0.6-1.7-0.2-0.3-0.3-0.6-0.7-1.1-0.2-0.2-0.4-0.4-0.8-0.6-0.1-0.1-0.8-0.3-0.8-0.2q-0.6-0.1-1 0.1-0.4 0.1-0.6 0.3-0.2 0.2-0.4 0.4-0.3 0.3-0.4 0.5c-0.2 0.4-0.4 0.7-0.5 1-0.2 0.6-0.4 1.2-0.6 1.7q-0.2 0.9-0.4 1.7c-0.5 2.2-0.9 4.4-1.3 6.7-0.4 2.2-0.8 4.5-1.2 6.7q-0.2 1-0.4 2c-0.3-2.2-0.6-4.6-0.8-6.9q-0.4-3.7-0.8-7.6-0.3-1.9-0.5-3.8c-0.2-1.4-0.4-2.7-0.7-4.1q-0.1-0.5-0.2-1c-0.1-0.4-0.2-0.8-0.4-1.3-0.1-0.2-0.3-0.5-0.5-0.8-0.1-0.2-0.3-0.4-0.6-0.7 0-0.2-1.4-0.7-1.8-0.6-0.8 0-1.3 0.4-1.6 0.6-0.4 0.3-0.5 0.5-0.6 0.7-0.3 0.3-0.4 0.6-0.5 0.8-0.2 0.5-0.3 0.9-0.4 1.3q-0.2 0.5-0.3 1-0.2 1.1-0.4 2.1-0.4 2.1-0.7 4.1-0.2 2-0.5 4.1c-0.6 5.4-1.2 10.9-1.8 16.5q-0.4 4-0.9 8-0.2-1.4-0.3-2.8c-0.7-5.9-1.2-11.9-1.8-18-0.5-6.1-1-12.3-1.7-18.6q-0.4-4.7-1-9.5-0.3-2.4-0.6-4.9-0.2-1.2-0.5-2.5-0.1-0.6-0.3-1.3-0.1-0.3-0.2-0.7-0.1-0.2-0.2-0.4 0-0.2-0.1-0.5-0.1-0.2-0.4-0.6c-0.1-0.2-0.2-0.5-0.8-1-0.8-0.6-2.2-1.1-3.4-0.5-1 0.5-1.3 1-1.5 1.3q-0.3 0.4-0.4 0.7-0.1 0.3-0.2 0.5-0.1 0.5-0.2 0.8-0.2 0.8-0.3 1.4-0.2 0.7-0.3 1.3c-0.2 1.7-0.4 3.4-0.6 5-0.3 3.3-0.5 6.5-0.8 9.8-0.5 6.5-0.9 13.1-1.5 19.6q-0.1 1.4-0.2 2.8-0.4-1.9-0.8-3.8c-0.3-1.7-0.6-3.4-1.1-5.2q-0.2-0.6-0.4-1.3c-0.2-0.5-0.3-1-0.6-1.6q-0.1-0.2-0.3-0.5-0.1-0.2-0.4-0.5c-0.2-0.3-0.4-0.5-0.8-0.8-0.1-0.3-1.5-0.7-1.8-0.6-1.3 0-1.7 0.4-2.2 0.7-0.4 0.3-0.6 0.6-0.7 0.8q-0.3 0.4-0.4 0.6-0.1 0.3-0.2 0.5-0.2 0.5-0.3 0.9-0.1 0.4-0.2 0.7-0.2 0.7-0.3 1.4-0.3 1.4-0.4 2.7-0.4 2.6-0.6 5.2c-0.4 3.4-0.6 6.8-0.9 10.2q-0.1 0.8-0.2 1.6c-0.5-2.9-1-5.9-1.5-8.8-0.6-3.4-1.1-6.9-1.8-10.3q-0.4-2.6-1-5.2-0.3-1.4-0.7-2.7-0.2-0.7-0.5-1.4-0.2-0.4-0.3-0.8c-0.2-0.3-0.3-0.6-0.6-0.9q-0.1-0.3-0.5-0.6c-0.2-0.2-0.5-0.5-1.1-0.7-0.8-0.3-1.1-0.3-2 0-0.6 0.2-1 0.5-1.2 0.8-0.2 0.2-0.4 0.4-0.5 0.6q-0.1 0.3-0.3 0.5-0.2 0.5-0.3 0.9-0.3 0.8-0.4 1.5-0.2 0.7-0.3 1.3c-0.4 1.9-0.6 3.6-0.8 5.4-0.4 3.5-0.8 7-1.1 10.4-0.3 3.5-0.6 7-1 10.4q-0.1 1.3-0.3 2.6-0.1-1-0.3-2.1c-0.6-3.4-1.1-6.9-1.6-10.3q-0.4-2.6-0.9-5.2-0.3-1.4-0.6-2.7-0.2-0.7-0.4-1.5c-0.1-0.2-0.2-0.5-0.4-0.8q-0.1-0.2-0.3-0.6c-0.2-0.2-0.4-0.4-0.9-0.8-0.5-0.3-1.7-0.5-2.4-0.1-0.6 0.3-0.8 0.7-1 0.9-0.2 0.2-0.3 0.4-0.4 0.6q-0.1 0.3-0.2 0.5-0.1 0.4-0.2 0.8-0.2 0.4-0.2 0.7c-0.2 1-0.4 1.9-0.5 2.7-0.3 1.8-0.5 3.6-0.6 5.3-0.3 3.5-0.6 7-0.8 10.4q-0.3 5.2-0.6 10.4-0.1 1.1-0.2 2.2-0.1-0.8-0.2-1.7c-0.6-6.7-1.1-13.5-1.7-20.2q-0.4-5-0.9-10c-0.4-3.4-0.7-6.7-1.2-10-0.2-1.7-0.5-3.3-0.8-5-0.2-0.9-0.3-1.7-0.6-2.6q-0.1-0.4-0.3-0.7-0.1-0.4-0.3-0.8-0.1-0.2-0.4-0.5c-0.1-0.2-0.3-0.4-0.7-0.6-0.8-0.4-0.9-0.3-1.8-0.2-0.5 0.3-0.7 0.5-0.9 0.7q-0.2 0.3-0.4 0.5-0.1 0.3-0.2 0.4-0.2 0.4-0.3 0.8-0.2 0.7-0.4 1.3-0.3 1.3-0.5 2.5-0.4 2.5-0.7 5c-0.5 3.2-0.8 6.5-1.2 9.7-0.4 3.2-0.7 6.4-1.2 9.5q-0.3 2.1-0.7 4.1-0.1-0.7-0.2-1.5-0.4-2.3-0.7-4.7-0.6-4.6-1-9.2-0.4-4.7-0.8-9.3-0.5-4.6-0.9-9.1c-0.3-3-0.6-6-1-9-0.2-1.5-0.4-3-0.7-4.5q-0.1-0.6-0.2-1.2-0.1-0.6-0.4-1.2c-0.1-0.2-0.1-0.5-0.3-0.7-0.1-0.2-0.2-0.3-0.4-0.5-0.1-0.2-0.8-0.6-1.3-0.5-0.6 0.1-0.9 0.4-1.1 0.5-0.1 0.2-0.2 0.4-0.3 0.5-0.2 0.3-0.2 0.5-0.3 0.7q-0.2 0.7-0.4 1.2-0.1 0.6-0.2 1.2-0.2 1.1-0.4 2.2-0.3 2.2-0.5 4.4-0.4 4.4-0.8 8.7-0.3 4.2-0.7 8.5c-0.4 5.6-0.8 11.1-1.2 16.5q-0.4 4.1-0.8 8-0.4 4-0.9 7.9-0.3 1.9-0.6 3.8-0.2 0.9-0.5 1.8c-0.1 0.6-0.3 1.2-0.5 1.7q-0.1 0.1-0.1 0.3-0.2-0.4-0.4-0.8-0.3-0.8-0.5-1.7-0.3-0.8-0.5-1.7c-0.6-2.4-1.1-4.8-1.5-7.2q-0.6-3.6-1.2-7.2c-0.8-4.7-1.6-9.2-2.4-13.7-0.5-2.2-0.9-4.4-1.5-6.6q-0.3-0.8-0.5-1.6-0.3-0.8-0.7-1.6-0.2-0.4-0.5-0.8-0.1-0.2-0.3-0.4c-0.2-0.1-0.4-0.3-0.7-0.3-0.1-0.1-0.4-0.1-0.4-0.1-0.2 0-0.3 0-0.4 0.1-0.3 0-0.5 0.2-0.6 0.3q-0.3 0.3-0.4 0.5-0.1 0.2-0.2 0.4c-0.3 0.5-0.5 1.1-0.7 1.6q-0.2 0.8-0.4 1.6-0.3 1.5-0.6 3-0.5 3.1-1 6.1c-0.5 3.9-1 7.7-1.7 11.3-0.3 1.8-0.7 3.5-1.2 5.2-0.2 0.8-0.5 1.6-0.9 2.3-0.2 0.3-0.4 0.7-0.6 0.9q-0.2 0.1-0.4 0.2 0 0 0 0c0 0-0.1 0-0.1 0 0 0-0.1 0-0.1 0q0 0-0.1 0 0 0-0.1 0-0.1-0.1-0.2-0.1-0.2-0.2-0.4-0.4-0.3-0.4-0.6-0.9c-0.4-0.7-0.7-1.4-1-2.2-0.6-1.4-1.1-2.9-1.5-4.4-1-2.9-1.8-5.6-2.7-8.2q-0.7-2-1.5-3.7c-0.6-1.2-1.2-2.3-2-3.2q-0.3-0.4-0.6-0.7-0.4-0.3-0.8-0.6-0.2-0.1-0.4-0.2-0.1 0-0.3-0.1h-0.1-0.1q-0.1-0.1-0.2-0.1h-0.3c0 0-0.1 0-0.1 0h-0.1-0.2c-0.7 0.1-1.2 0.3-1.7 0.7q-0.7 0.4-1.2 1c-0.7 0.8-1.3 1.6-1.7 2.4q-0.7 1.2-1.3 2.4-0.5 1.1-0.9 2.1-0.4 1-0.7 1.9-0.7 1.7-1.1 2.9-0.4 1.2-0.6 1.8-0.2 0.7-0.2 0.7l0.6 0.1q0 0 0.2-0.6 0.2-0.6 0.6-1.8 0.4-1.2 1.1-2.9 0.3-0.9 0.7-1.9 0.4-1 1-2 0.5-1.1 1.2-2.3c0.5-0.8 1-1.5 1.6-2.3q0.5-0.5 1.1-0.9c0.4-0.3 0.9-0.5 1.3-0.5h0.2 0.1c0 0 0 0 0.1 0h0.2q0.1 0 0.1 0l0.1 0.1h0.1q0.1 0 0.2 0.1 0.1 0 0.3 0.1 0.3 0.2 0.6 0.5 0.3 0.3 0.6 0.6c0.7 0.9 1.3 1.9 1.8 3.1q0.8 1.7 1.4 3.6c0.9 2.5 1.7 5.3 2.6 8.2 0.4 1.5 0.9 3 1.5 4.5 0.3 0.8 0.6 1.6 1 2.3q0.3 0.6 0.8 1.1 0.2 0.3 0.5 0.6 0.2 0.1 0.4 0.2 0.2 0.1 0.4 0.1 0.1 0.1 0.2 0.1c0.1 0 0.2 0 0.3 0 0 0 0.1 0 0.2-0.1q0.1 0 0.2 0 0.5-0.2 0.8-0.5c0.3-0.3 0.6-0.8 0.8-1.2 0.5-0.8 0.8-1.6 1.1-2.5 0.5-1.7 0.9-3.5 1.2-5.3 0.7-3.6 1.3-7.4 1.9-11.3q0.5-3 1-6 0.3-1.5 0.6-3 0.2-0.7 0.5-1.5c0.1-0.4 0.3-0.9 0.5-1.3q0.1-0.2 0.1-0.3 0.1-0.1 0.2-0.2 0 0 0 0 0 0 0 0 0.1 0.1 0.2 0.2 0.2 0.3 0.3 0.6 0.3 0.7 0.6 1.4 0.2 0.8 0.4 1.6c0.6 2 1 4.2 1.5 6.4 0.8 4.4 1.5 9 2.2 13.7q0.6 3.6 1.2 7.2c0.4 2.4 0.8 4.8 1.4 7.3q0.2 0.9 0.5 1.9 0.2 0.9 0.6 1.9 0.2 0.5 0.5 1 0.1 0.2 0.3 0.5c0.2 0.2 0.3 0.4 0.7 0.6q0.2 0.1 0.6 0.1c0.5 0 0.2 0.1 0.7-0.1 0.2-0.1 0.3-0.1 0.4-0.3q0.2-0.1 0.3-0.3c0.3-0.3 0.5-0.7 0.7-1 0.2-0.7 0.4-1.3 0.6-2q0.3-1 0.5-1.9 0.4-2 0.6-3.9 0.6-3.9 1.1-7.9 0.4-4 0.8-8.1 0.7-8.1 1.4-16.5 0.4-4.3 0.8-8.5 0.4-4.3 0.9-8.6 0.2-2.2 0.5-4.3 0.1-0.7 0.2-1.3 0.3 1.7 0.5 3.5c0.4 2.9 0.6 5.9 0.9 9q0.4 4.5 0.8 9.1 0.3 4.6 0.7 9.2 0.4 4.7 0.9 9.4 0.3 2.4 0.7 4.8 0.2 1.2 0.4 2.4 0.2 0.6 0.3 1.2c0.2 0.5 0.3 0.9 0.5 1.4 0.1 0.2 0.2 0.5 0.5 0.8 0.1 0.2 0.3 0.4 0.6 0.6 0.2 0.2 1 0.4 1.3 0.3 0.8-0.2 0.9-0.4 1.2-0.6q0.2-0.3 0.4-0.5c0.2-0.3 0.3-0.5 0.4-0.8q0.3-0.7 0.4-1.3 0.2-0.6 0.3-1.2c0.4-1.7 0.7-3.3 0.9-4.9 0.5-3.2 0.9-6.4 1.3-9.6 0.4-3.2 0.8-6.5 1.2-9.7q0.4-2.4 0.8-4.7 0-0.2 0.1-0.3 0.3 2.1 0.6 4.2c0.4 3.3 0.7 6.6 1 9.9q0.5 5 0.9 10c0.5 6.7 1 13.5 1.6 20.3q0.2 2.5 0.4 5.1 0.3 2.5 0.6 5.1 0.2 1.3 0.4 2.7c0.1 0.4 0.2 0.9 0.4 1.4q0 0.2 0.1 0.4 0.1 0.3 0.3 0.6c0.1 0.2 0.1 0.5 0.9 1 1 0.9 2.7-0.2 2.9-0.6 0.2-0.3 0.3-0.5 0.4-0.7q0.1-0.3 0.2-0.5 0.1-0.4 0.2-0.8 0.1-0.7 0.2-1.4 0.3-1.3 0.4-2.6 0.3-2.6 0.5-5.2 0.2-2.6 0.4-5.2 0.3-5.1 0.7-10.3 0.3-5.2 0.8-10.3 0.1-0.7 0.2-1.4 0.1 0.9 0.2 1.8c0.6 3.5 1 6.9 1.6 10.4 0.2 1.7 0.5 3.5 0.9 5.3 0.2 0.8 0.4 1.7 0.7 2.7q0.1 0.3 0.2 0.7 0.2 0.4 0.4 0.8 0.1 0.3 0.3 0.5c0.1 0.2 0.2 0.4 0.5 0.7 0.2 0.2 0.6 0.6 1.3 0.7 0.6 0.3 1.5 0 2.1-0.3 0.4-0.3 0.6-0.6 0.8-0.8 0.2-0.2 0.3-0.4 0.4-0.6 0.1-0.3 0.3-0.6 0.4-0.9q0.2-0.8 0.4-1.5 0.3-1.4 0.5-2.7 0.4-2.7 0.7-5.3c0.4-3.5 0.8-7 1.1-10.4 0.4-3.5 0.7-6.9 1.1-10.3q0.1-1 0.3-1.9 0.3 1.7 0.6 3.5c0.6 3.3 1.1 6.8 1.7 10.2 0.5 3.4 1 6.8 1.7 10.3q0.2 1.3 0.5 2.6 0.2 1.3 0.6 2.7 0.2 0.6 0.4 1.3 0.1 0.4 0.3 0.8 0.1 0.4 0.4 0.8 0.1 0.3 0.3 0.5c0.1 0.2 0.2 0.4 0.5 0.7 0.3 0.3 0.6 0.6 1.4 0.8 0.8 0.3 1.7 0.1 2.4-0.3 0.5-0.3 0.8-0.6 1-0.9q0.2-0.3 0.4-0.6c0.2-0.4 0.3-0.7 0.4-1 0.2-0.5 0.3-1 0.4-1.5q0.2-0.7 0.3-1.4 0.3-1.3 0.4-2.6 0.4-2.7 0.6-5.2c0.4-3.5 0.7-6.9 1.1-10.3q0-0.1 0-0.3 0.3 1.4 0.5 2.8c0.3 1.7 0.6 3.4 1 5.1 0.2 0.9 0.4 1.7 0.7 2.6 0.1 0.5 0.2 1 0.4 1.5q0.2 0.4 0.4 0.8 0.2 0.3 0.3 0.6c0.2 0.2 0.3 0.4 0.6 0.7 0.3 0.2 0.7 0.6 1.5 0.9 1.1 0.2 1.5 0.2 2.5-0.3 0.7-0.4 0.9-0.7 1.1-0.9q0.4-0.4 0.5-0.7c0.2-0.4 0.3-0.7 0.5-1q0.1-0.4 0.2-0.8 0.2-0.7 0.4-1.4 0.2-0.7 0.3-1.3c0.3-1.8 0.5-3.5 0.7-5.2q0.3-2.5 0.6-5 0.4-5 0.8-9.9 0.3-4.4 0.6-8.8 0 0.1 0 0.2 1 9.3 1.9 18.5c0.6 6.1 1.2 12.2 1.9 18.2 0.4 3 0.8 6 1.3 9q0.2 1.1 0.5 2.3 0.1 0.6 0.3 1.2c0.1 0.4 0.2 0.8 0.4 1.2q0.1 0.2 0.2 0.4 0 0.2 0.2 0.4c0 0.2 0.1 0.3 0.2 0.5 0.1 0.2 0.3 0.4 0.5 0.6 0.3 0.3 0.6 0.6 1.4 0.9 1 0.2 1.4 0.2 2.4-0.2 0.6-0.4 0.8-0.6 1-0.9q0.3-0.3 0.4-0.6c0.2-0.3 0.3-0.6 0.4-0.8q0.1-0.4 0.2-0.7 0.2-0.7 0.4-1.3 0.2-1.1 0.4-2.3 0.2-1.1 0.4-2.2 0.3-2.2 0.5-4.3 0.5-4.4 0.9-8.6c0.5-5.6 0.9-11.1 1.5-16.5q0.1-1.3 0.3-2.5 0 0.1 0 0.2 0.5 3.8 1 7.5c0.3 2.5 0.6 5 1.1 7.4q0.1 1 0.3 1.9 0.2 0.9 0.5 1.9 0.2 0.5 0.4 1.1 0.1 0.2 0.3 0.6c0.1 0.2 0.2 0.4 0.5 0.7q0.1 0.2 0.5 0.5c0.3 0.2 0.7 0.4 1.1 0.5 0.6 0 0.9-0.1 1.4-0.3 0.3-0.1 0.5-0.3 0.7-0.5 0.3-0.3 0.5-0.6 0.6-0.8q0.2-0.3 0.3-0.6 0.2-0.5 0.4-1 0.1-0.5 0.2-1 0.3-0.9 0.4-1.8 0.4-1.8 0.7-3.5 0.5-3.5 1-6.8c0.3-2.3 0.6-4.4 1.1-6.5q0.1-0.7 0.3-1.4 0.1 0.5 0.2 0.9 0.4 1.5 0.7 3 0.7 3 1.2 5.9c0.8 3.9 1.4 7.7 2.3 11.3q0.3 1.4 0.7 2.7 0.2 0.7 0.4 1.4c0.2 0.4 0.4 0.9 0.6 1.4 0.2 0.2 0.3 0.4 0.6 0.7q0.1 0.2 0.4 0.5c0.2 0.1 0.5 0.3 0.9 0.3 0.2 0 0.6 0 0.5 0 0.1 0 0.5-0.1 0.6-0.2q0.2-0.1 0.3-0.3 0.2-0.1 0.3-0.2c0.2-0.3 0.4-0.6 0.5-0.9 0.2-0.5 0.3-0.9 0.4-1.4q0.2-0.6 0.3-1.3c0.4-1.7 0.6-3.3 0.9-4.8 0.3-1.6 0.6-3.1 1-4.5 0.4-1.4 0.9-2.8 1.6-3.9q0.5-0.8 1.2-1.4 0.3-0.3 0.7-0.6 0.3-0.2 0.7-0.3c0 0 0.1 0 0.1 0l0.1-0.1h0.2l0.2-0.1h0.1q0 0 0.1 0h0.2q0.1 0 0.2 0 0.2 0 0.4 0 0.8 0.2 1.6 0.5 0.8 0.4 1.6 0.9 0.8 0.4 1.6 0.9 1.5 0.9 3.1 1.6 1.5 0.7 3 1.2 1.4 0.4 2.8 0.7 0.4 0.1 0.7 0.1l0.2 0.1h0.1q0.2 0 0.4 0 0.6 0.1 1.2 0.2c1.7 0.1 3.2 0.2 4.4 0.1q1.9-0.1 3.2-0.4 1.2-0.2 1.9-0.3 0.6-0.2 0.6-0.2zm-45.7-15q0 0 0 0.1 0-0.1 0-0.1zm-7.1 22.7q0 0 0 0 0 0 0 0zm-6.5-27.5q-0.1 0 0 0zm-8.1 45.3q0 0 0 0 0 0 0 0zm-10.4-66.8q0 0 0 0zm-15.6 57.8q0 0 0 0 0 0 0 0zm-16.7 1q0 0 0 0 0 0 0 0zm-6.9-26.8q0-0.1 0 0zm79.9 22.1q0 0 0 0 0 0 0 0z"/></g><g clip-path="url(#cp2)"><g clip-path="url(#cp3)"><g clip-path="url(#cp4)"><path class="b" d="m250.5 61.1q0 0-0.7 0.1-0.6 0.1-1.8 0.3c-0.9 0-1.9 0.1-3.1 0.2q-1.9 0-4.3-0.3-0.6-0.1-1.2-0.2-0.2-0.1-0.3-0.1h-0.2l-0.1-0.1q-0.3 0-0.7-0.1-1.3-0.3-2.6-0.8-1.4-0.5-2.9-1.2-1.4-0.8-2.9-1.7-0.7-0.5-1.5-1-0.8-0.5-1.7-0.9c-0.6-0.3-1.3-0.6-2.1-0.8q-0.2 0-0.5 0-0.2 0-0.3 0h-0.4q0 0-0.1 0h-0.2q-0.1 0-0.3 0.1h-0.2-0.2c-0.1 0.1-0.1 0.1-0.1 0.1q-0.6 0.2-1.2 0.5-0.5 0.3-1 0.7-0.4 0.4-0.8 0.8-0.4 0.5-0.7 1c-0.9 1.3-1.5 2.8-2 4.3-0.5 1.5-0.9 3-1.2 4.6-0.4 1.6-0.7 3.2-1 4.8q-0.2 0.6-0.3 1.2-0.1 0.2-0.1 0.3-0.1-0.2-0.2-0.5-0.2-0.6-0.4-1.2-0.3-1.3-0.6-2.6c-0.7-3.5-1.3-7.3-1.9-11.2q-0.4-3-1-6.1-0.3-1.5-0.7-3.1-0.2-0.8-0.4-1.6c-0.2-0.5-0.4-1.1-0.7-1.7-0.1-0.3-0.3-0.6-0.6-1.1-0.2-0.2-0.4-0.4-0.9-0.6 0-0.1-0.7-0.3-0.8-0.2q-0.5-0.1-0.9 0.1-0.4 0.1-0.6 0.3-0.2 0.2-0.4 0.4-0.3 0.3-0.4 0.5c-0.2 0.4-0.4 0.7-0.5 1-0.3 0.6-0.4 1.2-0.6 1.7q-0.2 0.9-0.4 1.7c-0.5 2.2-0.9 4.4-1.3 6.7q-0.6 3.3-1.2 6.7-0.2 1-0.4 2c-0.3-2.2-0.6-4.6-0.8-6.9q-0.4-3.7-0.9-7.6-0.2-1.9-0.4-3.8c-0.2-1.4-0.4-2.7-0.7-4.1q-0.1-0.5-0.3-1c-0.1-0.4-0.2-0.8-0.4-1.3-0.1-0.2-0.2-0.5-0.4-0.8-0.2-0.2-0.3-0.4-0.6-0.7-0.1-0.2-1.4-0.7-1.8-0.6-0.8 0-1.4 0.4-1.7 0.6-0.3 0.3-0.4 0.5-0.5 0.7-0.3 0.3-0.4 0.6-0.5 0.8-0.2 0.5-0.3 0.9-0.4 1.3q-0.2 0.5-0.3 1-0.3 1.1-0.5 2.1-0.3 2.1-0.6 4.1-0.3 2-0.5 4.1c-0.7 5.4-1.2 10.9-1.8 16.5q-0.4 4-0.9 8-0.2-1.4-0.3-2.8c-0.7-5.9-1.2-11.9-1.8-18-0.5-6.1-1.1-12.3-1.7-18.6q-0.4-4.7-1-9.5-0.3-2.4-0.7-4.9-0.2-1.2-0.4-2.5-0.1-0.6-0.3-1.3-0.1-0.3-0.2-0.7-0.1-0.2-0.2-0.4-0.1-0.2-0.2-0.5-0.1-0.2-0.3-0.6c-0.1-0.2-0.3-0.5-0.8-1-0.9-0.6-2.2-1.1-3.4-0.5-1.1 0.5-1.3 1-1.5 1.3-0.2 0.3-0.3 0.5-0.4 0.7q-0.1 0.3-0.2 0.5-0.2 0.5-0.3 0.8-0.1 0.8-0.3 1.4-0.1 0.7-0.2 1.3c-0.2 1.7-0.4 3.4-0.6 5-0.3 3.3-0.6 6.5-0.8 9.8-0.5 6.5-0.9 13.1-1.5 19.6q-0.1 1.4-0.2 2.8-0.4-1.9-0.8-3.8c-0.3-1.7-0.6-3.4-1.1-5.2q-0.2-0.6-0.4-1.3c-0.2-0.5-0.4-1-0.6-1.6q-0.1-0.2-0.3-0.5-0.1-0.2-0.4-0.5c-0.2-0.3-0.4-0.5-0.8-0.8-0.1-0.3-1.5-0.7-1.8-0.6-1.3 0-1.7 0.4-2.2 0.7-0.4 0.3-0.6 0.6-0.8 0.8q-0.2 0.4-0.3 0.6-0.1 0.3-0.2 0.5-0.2 0.5-0.3 0.9-0.1 0.4-0.2 0.7-0.2 0.7-0.3 1.4-0.3 1.4-0.5 2.7-0.3 2.6-0.5 5.2c-0.4 3.4-0.6 6.8-1 10.2q0 0.8-0.1 1.6c-0.6-2.9-1-5.9-1.5-8.8-0.6-3.4-1.2-6.9-1.8-10.3q-0.5-2.6-1.1-5.2-0.3-1.4-0.7-2.7-0.2-0.7-0.4-1.4-0.2-0.4-0.4-0.8c-0.1-0.3-0.2-0.6-0.5-0.9q-0.2-0.3-0.5-0.6c-0.2-0.2-0.5-0.5-1.1-0.7-0.8-0.3-1.1-0.3-2.1 0-0.6 0.2-0.9 0.5-1.1 0.8-0.2 0.2-0.4 0.4-0.5 0.6q-0.2 0.3-0.3 0.5-0.2 0.5-0.3 0.9-0.3 0.8-0.4 1.5-0.2 0.7-0.3 1.3c-0.4 1.9-0.6 3.6-0.8 5.4-0.5 3.5-0.8 7-1.1 10.4-0.3 3.5-0.6 7-1 10.4q-0.1 1.3-0.3 2.6-0.2-1-0.3-2.1c-0.6-3.4-1.1-6.9-1.6-10.3q-0.4-2.6-0.9-5.2-0.3-1.4-0.6-2.7-0.2-0.7-0.5-1.5c-0.1-0.2-0.2-0.5-0.3-0.8q-0.1-0.2-0.4-0.6c-0.1-0.2-0.3-0.4-0.8-0.8-0.5-0.3-1.7-0.5-2.4-0.1-0.7 0.3-0.9 0.7-1 0.9-0.2 0.2-0.3 0.4-0.4 0.6q-0.1 0.3-0.2 0.5-0.2 0.4-0.3 0.8-0.1 0.4-0.2 0.7c-0.2 1-0.3 1.9-0.4 2.7q-0.4 2.7-0.6 5.3c-0.4 3.5-0.6 7-0.8 10.4q-0.3 5.2-0.7 10.4 0 1.1-0.1 2.2-0.1-0.8-0.2-1.7c-0.6-6.7-1.1-13.5-1.7-20.2q-0.5-5-0.9-10c-0.4-3.4-0.7-6.7-1.2-10-0.2-1.7-0.5-3.3-0.8-5-0.2-0.9-0.4-1.7-0.6-2.6q-0.1-0.4-0.3-0.7-0.1-0.4-0.4-0.8-0.1-0.2-0.3-0.5c-0.1-0.2-0.3-0.4-0.8-0.6-0.7-0.4-0.9-0.3-1.7-0.2-0.5 0.3-0.7 0.5-0.9 0.7q-0.3 0.3-0.4 0.5-0.1 0.3-0.2 0.4-0.2 0.4-0.3 0.8-0.2 0.7-0.4 1.3-0.3 1.3-0.5 2.5-0.4 2.5-0.7 5c-0.5 3.2-0.8 6.5-1.2 9.7-0.4 3.2-0.7 6.4-1.2 9.5q-0.3 2.1-0.7 4.1-0.1-0.7-0.3-1.5-0.3-2.3-0.6-4.7-0.6-4.6-1-9.2-0.5-4.7-0.9-9.3-0.4-4.6-0.8-9.1-0.4-4.5-1-9c-0.2-1.5-0.4-3-0.7-4.5q-0.1-0.6-0.2-1.2-0.2-0.6-0.4-1.2c-0.1-0.2-0.2-0.5-0.3-0.7-0.1-0.2-0.2-0.3-0.4-0.5-0.1-0.2-0.8-0.6-1.3-0.5-0.6 0.1-0.9 0.4-1.1 0.5-0.2 0.2-0.2 0.4-0.3 0.5-0.2 0.3-0.3 0.5-0.3 0.7q-0.2 0.7-0.4 1.2-0.1 0.6-0.2 1.2-0.2 1.1-0.4 2.2-0.3 2.2-0.5 4.4-0.5 4.4-0.8 8.7-0.3 4.2-0.7 8.5-0.6 8.4-1.3 16.5-0.3 4.1-0.7 8-0.4 4-0.9 7.9-0.3 1.9-0.7 3.8-0.2 0.9-0.4 1.8c-0.1 0.6-0.3 1.2-0.5 1.7q-0.1 0.1-0.1 0.3-0.2-0.4-0.4-0.8-0.3-0.8-0.6-1.7-0.2-0.8-0.4-1.7c-0.6-2.4-1.1-4.8-1.5-7.2q-0.7-3.6-1.2-7.2c-0.8-4.7-1.6-9.2-2.4-13.7-0.5-2.2-1-4.4-1.6-6.6q-0.2-0.8-0.5-1.6-0.2-0.8-0.6-1.6-0.2-0.4-0.5-0.8-0.1-0.2-0.4-0.4c-0.1-0.1-0.3-0.3-0.6-0.3-0.1-0.1-0.4-0.1-0.4-0.1-0.2 0-0.3 0-0.5 0.1-0.2 0-0.4 0.2-0.6 0.3q-0.2 0.3-0.3 0.5-0.2 0.2-0.3 0.4c-0.2 0.5-0.4 1.1-0.6 1.6q-0.2 0.8-0.4 1.6-0.4 1.5-0.6 3-0.6 3.1-1 6.1c-0.5 3.9-1.1 7.7-1.7 11.3-0.4 1.8-0.7 3.5-1.2 5.2-0.3 0.8-0.5 1.6-0.9 2.3-0.2 0.3-0.4 0.7-0.6 0.9q-0.2 0.1-0.4 0.2 0 0 0 0-0.1 0-0.2 0c0.1 0 0 0 0 0q0 0-0.1 0-0.1 0-0.1 0-0.1-0.1-0.2-0.1-0.2-0.2-0.4-0.4-0.3-0.4-0.6-0.9c-0.4-0.7-0.7-1.4-1-2.2-0.6-1.4-1.1-2.9-1.6-4.4-0.9-2.9-1.7-5.6-2.6-8.2q-0.7-2-1.5-3.7c-0.6-1.2-1.2-2.3-2-3.2q-0.3-0.4-0.7-0.7-0.3-0.3-0.7-0.6-0.2-0.1-0.4-0.2-0.2 0-0.3-0.1h-0.1-0.1q-0.1-0.1-0.3-0.1h-0.2c0 0-0.1 0-0.1 0h-0.1-0.3c-0.6 0.1-1.2 0.3-1.6 0.7q-0.7 0.4-1.2 1c-0.7 0.8-1.3 1.6-1.7 2.4q-0.7 1.2-1.3 2.4-0.5 1.1-0.9 2.1-0.4 1-0.8 1.9-0.6 1.7-1 2.9-0.4 1.2-0.6 1.8-0.2 0.7-0.2 0.7l0.5 0.1q0 0 0.2-0.6 0.2-0.6 0.7-1.8 0.4-1.2 1-2.9 0.4-0.9 0.8-1.9 0.4-1 1-2 0.5-1.1 1.2-2.3c0.4-0.8 1-1.5 1.6-2.3q0.5-0.5 1.1-0.9c0.4-0.3 0.9-0.5 1.3-0.5h0.2 0.1c0 0 0 0 0 0h0.3q0 0 0.1 0l0.1 0.1h0.1q0.1 0 0.1 0.1 0.2 0 0.4 0.1 0.3 0.2 0.6 0.5 0.3 0.3 0.6 0.6c0.7 0.9 1.2 1.9 1.8 3.1q0.7 1.7 1.4 3.6c0.9 2.5 1.7 5.3 2.6 8.2 0.4 1.5 0.9 3 1.5 4.5 0.3 0.8 0.6 1.5 1 2.3 0.2 0.4 0.4 0.8 0.8 1.1q0.2 0.3 0.5 0.6 0.1 0.1 0.3 0.2 0.2 0.1 0.5 0.1 0.1 0.1 0.2 0.1c0.1 0 0.1 0 0.3 0 0 0 0.1 0 0.2-0.1q0.1 0 0.2 0 0.4-0.2 0.7-0.5c0.4-0.3 0.7-0.8 0.9-1.2 0.5-0.8 0.8-1.6 1-2.5 0.6-1.7 1-3.5 1.3-5.3 0.7-3.6 1.3-7.4 1.9-11.3q0.4-3 1-6 0.3-1.5 0.6-3 0.2-0.7 0.4-1.5c0.2-0.4 0.4-0.9 0.6-1.3q0-0.2 0.1-0.3 0.1-0.1 0.2-0.2 0 0 0 0 0 0 0 0 0.1 0.1 0.2 0.2 0.2 0.3 0.3 0.6 0.3 0.7 0.6 1.4 0.2 0.8 0.4 1.6c0.6 2 1 4.2 1.4 6.4 0.9 4.4 1.5 9 2.3 13.7q0.5 3.6 1.1 7.2c0.5 2.4 0.9 4.8 1.5 7.3q0.2 0.9 0.5 1.9 0.2 0.9 0.6 1.9 0.2 0.5 0.4 1 0.2 0.2 0.4 0.5c0.1 0.2 0.3 0.4 0.6 0.6q0.3 0.1 0.7 0.1c0.5 0 0.2 0.1 0.6-0.1 0.3-0.1 0.4-0.1 0.5-0.3q0.2-0.1 0.3-0.3c0.3-0.3 0.5-0.7 0.6-1 0.3-0.7 0.5-1.3 0.7-2q0.2-1 0.4-1.9 0.4-2 0.7-3.9 0.6-3.9 1-7.9 0.5-4 0.9-8.1c0.5-5.4 0.9-10.9 1.4-16.5q0.4-4.3 0.8-8.5 0.4-4.3 0.8-8.6 0.3-2.2 0.6-4.3 0.1-0.7 0.2-1.3 0.3 1.7 0.5 3.5 0.5 4.4 0.9 9 0.4 4.5 0.7 9.1 0.4 4.6 0.8 9.2c0.3 3.1 0.6 6.3 0.9 9.4q0.3 2.4 0.7 4.8 0.2 1.2 0.4 2.4 0.1 0.6 0.3 1.2c0.1 0.5 0.3 0.9 0.5 1.4 0.1 0.2 0.2 0.5 0.4 0.8 0.2 0.2 0.3 0.4 0.7 0.6 0.2 0.2 1 0.4 1.3 0.3 0.8-0.2 0.9-0.4 1.2-0.6q0.2-0.3 0.4-0.5c0.2-0.3 0.3-0.5 0.4-0.8 0.2-0.5 0.3-0.9 0.4-1.3q0.2-0.6 0.3-1.2c0.4-1.7 0.7-3.3 0.9-4.9 0.5-3.2 0.9-6.4 1.3-9.6 0.4-3.2 0.8-6.5 1.2-9.7q0.4-2.4 0.8-4.7 0-0.2 0-0.3 0.4 2.1 0.7 4.2c0.4 3.3 0.7 6.6 1 9.9q0.5 5 0.9 10c0.5 6.7 1 13.5 1.5 20.3q0.3 2.5 0.5 5.1 0.3 2.5 0.6 5.1 0.2 1.3 0.4 2.7c0.1 0.4 0.2 0.9 0.4 1.4q0 0.2 0.1 0.4 0.1 0.3 0.2 0.6c0.2 0.2 0.2 0.5 1 1 0.9 0.9 2.7-0.2 2.8-0.6 0.3-0.3 0.4-0.5 0.5-0.7q0.1-0.3 0.2-0.5 0.1-0.4 0.2-0.8 0.1-0.7 0.2-1.4 0.2-1.3 0.4-2.6 0.3-2.6 0.5-5.2 0.2-2.6 0.3-5.2 0.4-5.1 0.8-10.3c0.2-3.4 0.5-6.9 0.8-10.3q0.1-0.7 0.1-1.4 0.2 0.9 0.3 1.8c0.5 3.5 1 6.9 1.5 10.4 0.3 1.7 0.6 3.5 1 5.3 0.2 0.8 0.4 1.7 0.7 2.7q0.1 0.3 0.2 0.7 0.1 0.4 0.4 0.8 0.1 0.3 0.2 0.5c0.2 0.2 0.3 0.4 0.5 0.7 0.3 0.2 0.7 0.6 1.4 0.7 0.6 0.3 1.5 0 2.1-0.3 0.4-0.3 0.6-0.6 0.8-0.8 0.2-0.2 0.3-0.4 0.4-0.6 0.1-0.3 0.2-0.6 0.3-0.9 0.2-0.5 0.3-1 0.5-1.5 0.2-0.9 0.4-1.8 0.5-2.7 0.3-1.8 0.5-3.5 0.7-5.3 0.4-3.5 0.8-7 1.1-10.4 0.3-3.5 0.7-6.9 1.1-10.3q0.1-1 0.3-1.9 0.3 1.7 0.6 3.5c0.6 3.3 1.1 6.8 1.6 10.2 0.6 3.4 1.1 6.8 1.7 10.3q0.3 1.3 0.5 2.6 0.3 1.3 0.7 2.7 0.1 0.6 0.4 1.3 0.1 0.4 0.3 0.8 0.1 0.4 0.3 0.8 0.2 0.3 0.3 0.5c0.2 0.2 0.3 0.4 0.6 0.7 0.2 0.3 0.6 0.6 1.4 0.8 0.8 0.3 1.7 0.1 2.3-0.3 0.6-0.3 0.9-0.6 1.1-0.9q0.2-0.3 0.4-0.6c0.2-0.4 0.3-0.7 0.4-1 0.2-0.5 0.3-1 0.4-1.5q0.2-0.7 0.3-1.4 0.2-1.3 0.4-2.6 0.4-2.7 0.6-5.2c0.4-3.5 0.7-6.9 1.1-10.3q0-0.1 0-0.3 0.2 1.4 0.5 2.8c0.3 1.7 0.6 3.4 1 5.1q0.2 1.3 0.6 2.6c0.2 0.5 0.3 1 0.5 1.5q0.2 0.4 0.4 0.8 0.1 0.3 0.3 0.6c0.2 0.2 0.3 0.4 0.6 0.7 0.3 0.2 0.7 0.6 1.5 0.9 1.1 0.2 1.5 0.2 2.5-0.3 0.6-0.4 0.9-0.7 1.1-0.9q0.3-0.4 0.5-0.7c0.2-0.4 0.3-0.7 0.4-1q0.2-0.4 0.3-0.8 0.2-0.7 0.4-1.4 0.1-0.7 0.3-1.3c0.3-1.8 0.5-3.5 0.7-5.2q0.3-2.5 0.5-5 0.5-5 0.9-9.9 0.3-4.4 0.6-8.8 0 0.1 0 0.2c0.7 6.2 1.2 12.4 1.8 18.5 0.6 6.1 1.3 12.2 2 18.2 0.4 3 0.8 6 1.3 9q0.2 1.1 0.5 2.3 0.1 0.6 0.3 1.2c0.1 0.4 0.2 0.8 0.4 1.2q0.1 0.2 0.1 0.4 0.1 0.2 0.2 0.4c0.1 0.2 0.2 0.3 0.3 0.5 0.1 0.2 0.3 0.4 0.5 0.6 0.3 0.3 0.6 0.6 1.4 0.9 1 0.2 1.4 0.2 2.3-0.2 0.6-0.4 0.8-0.6 1.1-0.9q0.2-0.3 0.4-0.6c0.2-0.3 0.3-0.6 0.4-0.8q0.1-0.4 0.2-0.7 0.2-0.7 0.3-1.3 0.3-1.1 0.5-2.3 0.2-1.1 0.3-2.2 0.4-2.2 0.6-4.3 0.5-4.4 0.9-8.6c0.5-5.6 0.9-11.1 1.5-16.5q0.1-1.3 0.3-2.5 0 0.1 0 0.2 0.5 3.8 0.9 7.5c0.4 2.5 0.7 5 1.1 7.4q0.2 1 0.4 1.9 0.2 0.9 0.5 1.9 0.1 0.5 0.4 1.1 0.1 0.2 0.2 0.6c0.2 0.2 0.3 0.4 0.5 0.7q0.2 0.2 0.6 0.5c0.2 0.2 0.6 0.4 1.1 0.5 0.6 0 0.8-0.1 1.4-0.3 0.3-0.1 0.5-0.3 0.7-0.5 0.3-0.3 0.4-0.6 0.6-0.8q0.2-0.3 0.3-0.6 0.2-0.5 0.3-1 0.2-0.5 0.3-1 0.2-0.9 0.4-1.8 0.4-1.8 0.6-3.5c0.4-2.3 0.7-4.6 1-6.8 0.4-2.3 0.7-4.4 1.1-6.5q0.2-0.7 0.4-1.4 0.1 0.5 0.2 0.9 0.4 1.5 0.7 3c0.5 2 0.8 3.9 1.2 5.9 0.7 3.9 1.4 7.7 2.3 11.3q0.3 1.4 0.7 2.7 0.2 0.7 0.4 1.4c0.2 0.4 0.4 0.9 0.6 1.4 0.2 0.2 0.3 0.4 0.5 0.7q0.2 0.2 0.5 0.5c0.2 0.1 0.5 0.3 0.9 0.3 0.2 0 0.6 0 0.5 0 0.1 0 0.5-0.1 0.6-0.2q0.2-0.1 0.3-0.3 0.2-0.1 0.3-0.2c0.2-0.3 0.3-0.6 0.5-0.9 0.2-0.5 0.3-0.9 0.4-1.4q0.2-0.6 0.3-1.3c0.3-1.7 0.6-3.3 0.9-4.8 0.3-1.6 0.6-3.1 1-4.5 0.4-1.4 0.9-2.8 1.6-3.9q0.5-0.8 1.2-1.4 0.3-0.3 0.7-0.6 0.3-0.2 0.7-0.3c0 0 0.1 0 0.1 0l0.1-0.1h0.2l0.2-0.1h0.1q0 0 0.1 0h0.2q0.1 0 0.2 0 0.2 0 0.4 0 0.8 0.2 1.6 0.5 0.8 0.4 1.6 0.9 0.8 0.4 1.6 0.9 1.5 0.9 3 1.6 1.6 0.7 3 1.2 1.5 0.4 2.9 0.7 0.3 0.1 0.7 0.1l0.1 0.1h0.2q0.2 0 0.3 0c0.5 0.1 0.9 0.1 1.3 0.2 1.7 0.1 3.1 0.2 4.4 0.1q1.9-0.1 3.2-0.4 1.2-0.2 1.9-0.3 0.6-0.2 0.6-0.2zm-45.8-15q0.1 0 0.1 0.1-0.1-0.1-0.1-0.1zm-7 22.7q0 0 0 0zm-6.6-27.5q0 0 0 0zm-8 45.3q0 0 0-0.1 0 0.1 0 0.1zm-10.4-66.8q0 0 0 0zm-15.7 57.7q0 0.1 0 0.1 0 0 0-0.1zm-16.6 1.1q0 0 0 0 0 0 0 0zm-6.9-26.9q0 0 0 0zm79.9 22.2q0 0 0 0 0 0 0 0z"/></g></g></g><path  d="m12.5 139.9h10.5v2.6h-7.2v14.6h6.8v2.7h-6.8v20.2h-3.3z"/><path  d="m27.5 156.8q0-5.9 1.1-8.2 1.1-2.2 3-2.8 1.1-0.4 2.6-0.4 5.7 0 6.4 6.3 0.3 2.1 0.3 5.1v11.5q0 4-0.2 5.2-0.2 1.2-0.3 2-1 4.9-6.4 4.9-2.2 0-3.5-0.9-2.5-1.7-2.9-6.4-0.1-2-0.1-4.8zm10-0.9q0-5.8-1.6-7-0.7-0.6-1.6-0.6-2.6 0-3.1 2.9-0.4 1.8-0.4 4.7v13.5q0 5 0.9 6.5 0.9 1.5 2.7 1.5 1.9 0 2.5-2.1 0.6-2.1 0.6-5.9z"/><path  d="m50.8 149.2q0.5-1.6 2-2.7 1.6-1.1 3.7-1.1 2.1 0 3.5 1.7 1.4 1.8 1.4 5.3v27.6h-3.4v-27.9q0-2-0.9-2.8-0.9-0.9-2.4-0.9-3.9 0-3.9 3.8v27.8h-3.4v-34.2h3.4z"/><path  d="m67.7 156.9q0-6 1.1-8.2 1.1-2.3 3.1-2.9 1.1-0.4 2.6-0.4 1.5 0 2.6 0.4 1.6 0.5 2.8 2.9 0.8 1.7 0.8 8.5v5.6h-9.6v6.9q0 5.3 0.8 6.5 0.8 1.2 2.3 1.2 1.5 0 2.2-0.9 0.6-1 0.7-2.5 0.2-1.5 0.2-4.1v-2.6h3.3v1.1q0 5.1-0.3 7-0.9 5-5.7 5-4.1 0-5.5-2.6-0.9-1.6-1.2-3.8-0.2-2.2-0.2-5.7zm9.6 3.2v-4.6q0-3.9-0.3-5.1-0.5-2-2.5-2-2.7 0-3.2 3.6-0.2 1.4-0.2 3.5 0 0.2 0 0.4v4.2zm-6.7-18.8l9.1-3.7v3.3l-9.1 1.9z"/><path  d="m87.8 139.9h3.5v5.8h4v2.6h-4v26.9q0 1.1 0.2 1.5 0.3 0.3 0.9 0.5 0.7 0.1 2.9 0.1v2.9h-2.4q-3.2 0-4.2-1.2-0.5-0.6-0.7-1.5-0.2-0.9-0.2-2.5v-26.7h-3.4v-2.6h3.4z"/><path  d="m100.3 145.8h3.5v34.2h-3.5zm0-6.4h3.4v3.2h-3.4z"/><path  d="m110.4 156.6q0-5.7 1.1-8 1.1-2.2 3.1-2.8 1.1-0.4 3-0.4 1.9 0 3.5 1 1 0.7 1.7 2.7 0.6 1.9 0.6 7.6v1.1h-3.4v-2.1q0-3.9-0.3-5.1-0.5-2.1-2.5-2.1-2.5 0-3.1 2.9-0.3 1.5-0.3 4.5v13.7q0 4.6 0.3 5.5 0.4 0.9 0.7 1.3 0.7 0.9 2.3 0.9 1.7 0 2.3-1.5 0.5-1.4 0.5-3.1 0.1-1.7 0.1-2.9v-2.6h3.4v1q0 5.1-0.3 7-0.9 5.2-5.8 5.2-4.2 0-5.5-2.6-0.9-1.7-1.2-3.9-0.2-2.1-0.2-5.6z"/><path  d="m129.2 156q0-3.7 0.2-4.8 0.2-1 0.4-1.8 0.3-0.9 0.6-1.4 0.3-0.5 0.8-1.1 0.5-0.5 1.1-0.8 0.7-0.3 1.5-0.5 0.9-0.2 1.9-0.2 1.1 0 1.9 0.2 0.9 0.2 1.5 0.4 0.6 0.2 1.1 0.8 0.5 0.6 0.8 1 1.1 1.5 1.1 8.4v23.8h-3.4v-2.6q-0.3 0.9-1.5 1.9-1.1 0.9-3 0.9-2.7 0-4.1-2.2-1.3-2.3-1.3-6.6v-4.4q0-2.3 1.1-3.6 1.1-1.3 1.9-1.9 2.2-1.3 4.4-2.2 2.2-1 2.5-1.1v-3.8q0-3.3-0.3-3.9-0.2-0.6-0.4-1-0.5-1.1-2.4-1.1-1.9 0-2.5 1.6-0.5 1.6-0.5 6.1v0.8h-3.4zm9.5 4.9q-3.8 1.7-4.3 2.2-0.6 0.4-1.1 0.9-1.2 1.1-1.2 4.4v2.7q0 3.6 0.6 4.9 0.5 1.4 1.9 1.4 1.5 0 2.5-0.7 1.2-0.7 1.6-1.5z"/><path  d="m160.8 139.9h3.5l7.1 40.1h-3.3l-1.3-8.1h-8l-1.3 8.1h-3.2zm5.6 29.2l-3.7-22.7h-0.1l-3.4 22.7z"/><path  d="m175.6 156.6q0-5.7 1.1-8 1.1-2.2 3.1-2.8 1.1-0.4 3-0.4 1.9 0 3.5 1 1 0.7 1.7 2.7 0.6 1.9 0.6 7.6v1.1h-3.4v-2.1q0-3.9-0.3-5.1-0.5-2.1-2.5-2.1-2.5 0-3.1 2.9-0.3 1.5-0.3 4.5v13.7q0 4.6 0.3 5.5 0.4 0.9 0.7 1.3 0.7 0.9 2.3 0.9 1.7 0 2.3-1.5 0.5-1.4 0.5-3.1 0.1-1.7 0.1-2.9v-2.6h3.4v1q0 5.1-0.3 7-0.9 5.2-5.8 5.2-4.2 0-5.5-2.6-0.9-1.7-1.2-3.9-0.2-2.1-0.2-5.6z"/><path  d="m197.5 173.3q0 4 3.5 4 1.7 0 2.7-1.1 1-1.2 1-3.1v-27.3h3.4v34.2h-3.4v-3.4q-0.4 1.5-1.9 2.7-1.4 1.1-3.3 1.1-1.8 0-3.6-1.5-1.8-1.5-1.8-5.4v-27.7h3.4zm0.2-32.1l9.1-3.7v3.3l-9.1 1.9z"/><path  d="m214.5 153.1q0-3.8 1.8-5.7 1.8-2 5-2 3.2 0 4.6 2.5 1.5 2.5 1.5 8.5v1.8h-3.5v-2.5q0-3.6-0.6-5.4-0.7-1.8-2.2-1.8-1.6 0-2.4 1.1-0.8 1-0.8 3.6 0 0 0 0.1 0 4 3.7 7.6l1.8 1.7q4.5 4.5 4.5 10 0 3.6-1.6 5.7-1.5 2.1-4.9 2.1-3.4 0-5.1-2.3-1.6-2.3-1.6-7.4v-2.9h3.4v2.3q0 7.2 3.2 7.2 1.7 0 2.4-1 0.7-1.1 0.7-3.9 0-4.1-3.5-7.8l-1.9-1.8q-4.5-4.6-4.5-9.7z"/><path  d="m234.8 139.9h3.4v5.8h4v2.6h-4v26.9q0 1.1 0.2 1.5 0.3 0.3 1 0.5 0.7 0.1 2.8 0.1v2.9h-2.4q-3.2 0-4.1-1.2-0.6-0.6-0.8-1.5-0.1-0.9-0.1-2.5v-26.7h-3.4v-2.6h3.4z"/><path  d="m247.3 145.8h3.4v34.2h-3.4zm0-6.4h3.4v3.2h-3.4z"/><path  d="m257.3 156.6q0-5.7 1.1-8 1.2-2.2 3.1-2.8 1.1-0.4 3-0.4 2 0 3.5 1 1.1 0.7 1.7 2.7 0.7 1.9 0.7 7.6v1.1h-3.5v-2.1q0-3.9-0.3-5.1-0.5-2.1-2.5-2.1-2.5 0-3.1 2.9-0.3 1.5-0.3 4.5v13.7q0 4.6 0.4 5.5 0.3 0.9 0.7 1.3 0.6 0.9 2.3 0.9 1.6 0 2.2-1.5 0.6-1.4 0.6-3.1 0-1.7 0-2.9v-2.6h3.5v1q0 5.1-0.4 7-0.9 5.2-5.7 5.2-4.2 0-5.6-2.6-0.9-1.7-1.2-3.9-0.2-2.1-0.2-5.6z"/><path  d="m276.1 156q0-3.7 0.2-4.8 0.2-1 0.5-1.8 0.2-0.9 0.5-1.4 0.4-0.5 0.8-1.1 0.5-0.5 1.2-0.8 0.6-0.3 1.5-0.5 0.8-0.2 1.9-0.2 1 0 1.9 0.2 0.8 0.2 1.4 0.4 0.7 0.2 1.1 0.8 0.5 0.6 0.8 1 1.1 1.5 1.1 8.4v23.8h-3.4v-2.6q-0.3 0.9-1.4 1.9-1.2 0.9-3.1 0.9-2.6 0-4-2.2-1.4-2.3-1.4-6.6v-4.4q0-2.3 1.1-3.6 1.2-1.3 2-1.9 2.1-1.3 4.3-2.2 2.2-1 2.5-1.1v-3.8q0-3.3-0.2-3.9-0.3-0.6-0.4-1-0.5-1.1-2.4-1.1-2 0-2.5 1.6-0.6 1.6-0.6 6.1v0.8h-3.4zm9.5 4.9q-3.7 1.7-4.3 2.2-0.6 0.4-1 0.9-1.2 1.1-1.2 4.4v2.7q0 3.6 0.5 4.9 0.6 1.4 2 1.4 1.4 0 2.5-0.7 1.1-0.7 1.5-1.5z"/><path  d="m25.3 131v-19.4q-0.1-0.3 0.1-0.5 0.2-0.1 0.5-0.1h2.8q0.6 0 0.6 0.6v16.2h8.1q0.3 0 0.4 0.2 0.2 0.1 0.2 0.4v2.6q0 0.5-0.6 0.6h-11.5q-0.7 0-0.6-0.6z"/><path  d="m39.3 131l7.8-19.5q0.3-0.5 0.8-0.5h2.3q0.5 0 0.7 0.5l7.8 19.5q0.1 0.2 0 0.4-0.1 0.2-0.4 0.2h-3q-0.5 0-0.7-0.5l-1.4-3.4h-8.5l-1.3 3.4q-0.2 0.5-0.7 0.5h-3q-0.6 0-0.4-0.6zm9.7-14.7l-3 7.9h5.9z"/><path  d="m61 131v-19.5q0-0.5 0.5-0.5h9q1.6 0 2.8 0.7 1.3 0.8 2 2.1 0.8 1.3 0.8 2.9 0 2.5-1.6 3.9 1.2 0.7 1.9 2.1 0.7 1.3 0.7 2.9-0.1 1.6-0.8 2.9-0.8 1.4-2 2.2-1.3 0.9-2.9 0.9h-9.9q-0.5 0-0.5-0.6zm9.2-8.5h-5.1v5.7h5.2q0.9 0 1.4-0.4 0.6-0.4 0.9-1.1 0.3-0.6 0.3-1.3 0-1.2-0.8-2-0.8-0.9-1.9-0.9zm-0.8-8.2h-4.3v5h4.3q1.2 0 1.9-0.6 0.8-0.7 0.8-1.9 0-1.1-0.8-1.8-0.7-0.7-1.9-0.7z"/><path  d="m99.9 121.3q0 2.2-0.8 4.1-0.8 1.9-2.3 3.3-1.5 1.5-3.4 2.3-1.9 0.8-4.1 0.8-2.2 0-4.1-0.8-1.9-0.8-3.4-2.3-1.4-1.4-2.2-3.3-0.8-1.9-0.8-4.1 0-2.2 0.8-4.2 0.8-1.9 2.2-3.3 1.5-1.5 3.4-2.3 1.9-0.8 4.1-0.8 2.2 0 4.1 0.8 1.9 0.8 3.4 2.3 1.5 1.4 2.3 3.3 0.8 2 0.8 4.2zm-4.1 0q0-1.9-0.8-3.4-0.9-1.5-2.3-2.4-1.5-0.9-3.4-0.9-1.9 0-3.3 0.9-1.5 0.9-2.3 2.4-0.9 1.5-0.9 3.4 0 1.8 0.9 3.3 0.8 1.5 2.3 2.5 1.4 0.9 3.3 0.9 1.9 0 3.4-0.9 1.4-1 2.3-2.5 0.8-1.5 0.8-3.3z"/><path  d="m103.4 131v-19.5q0-0.2 0.2-0.4 0.1-0.1 0.4-0.1h8.8q1.9 0 3.4 0.9 1.4 1 2.3 2.6 0.8 1.5 0.8 3.2 0 1.8-1 3.3-0.9 1.6-2.5 2.5l3.8 7.5q0.1 0.2 0 0.4-0.1 0.2-0.4 0.2h-3.6q-0.4 0-0.6-0.5l-3.3-6.7h-4.2v6.6q0 0.6-0.6 0.6h-2.9q-0.6 0-0.6-0.6zm8.4-16.4h-4.3v6.2h4.3q1.5 0 2.4-0.9 1-0.9 1-2.2 0-1.3-1-2.2-0.9-0.9-2.4-0.9z"/><path  d="m120.2 131l7.8-19.5q0.3-0.5 0.7-0.5h2.3q0.5 0 0.8 0.5l7.8 19.5q0.1 0.2 0 0.4-0.1 0.2-0.4 0.2h-3q-0.5 0-0.7-0.5l-1.4-3.4h-8.5l-1.3 3.4q-0.2 0.5-0.7 0.5h-3q-0.6 0-0.4-0.6zm9.7-14.7l-3 7.9h5.9z"/><path  d="m140.2 114.1v-2.6q0-0.5 0.5-0.5h14.6q0.6 0 0.6 0.5v2.6q0 0.6-0.6 0.6h-5.3v16.3q0 0.6-0.5 0.6h-3q-0.6 0-0.6-0.6v-16.3h-5.2q-0.5 0-0.5-0.6z"/><path  d="m179 121.3q0 2.2-0.9 4.1-0.8 1.9-2.3 3.3-1.4 1.5-3.4 2.3-1.9 0.8-4.1 0.8-2.2 0-4.1-0.8-1.9-0.8-3.3-2.3-1.5-1.4-2.3-3.3-0.8-1.9-0.8-4.1 0-2.2 0.8-4.2 0.8-1.9 2.3-3.3 1.4-1.5 3.3-2.3 1.9-0.8 4.1-0.8 2.2 0 4.1 0.8 2 0.8 3.4 2.3 1.5 1.4 2.3 3.3 0.9 2 0.9 4.2zm-4.1 0q0-1.9-0.9-3.4-0.8-1.5-2.3-2.4-1.5-0.9-3.4-0.9-1.8 0-3.3 0.9-1.5 0.9-2.3 2.4-0.9 1.5-0.8 3.4-0.1 1.8 0.8 3.3 0.8 1.5 2.3 2.5 1.5 0.9 3.3 0.9 1.9 0 3.4-0.9 1.5-1 2.3-2.5 0.9-1.5 0.9-3.3zm-4.9-13.6l1.2-2.9q0.2-0.3 0.2-0.5 0-0.3-0.4-0.3h-2.1q-0.4 0-0.7 0.6l-1.2 2.8q-0.1 0.2-0.1 0.3-0.1 0.1-0.1 0.2 0 0.2 0.1 0.3 0.1 0.1 0.3 0.1h2q0.5 0 0.8-0.6z"/><path  d="m182.5 131v-19.5q0-0.2 0.1-0.4 0.1-0.1 0.4-0.1h8.8q1.9 0 3.4 0.9 1.5 1 2.3 2.6 0.8 1.5 0.8 3.2 0 1.8-1 3.3-0.9 1.6-2.5 2.5l3.8 7.5q0.1 0.2 0 0.4-0.1 0.2-0.4 0.2h-3.5q-0.5 0-0.7-0.5l-3.3-6.7h-4.2v6.6q0 0.6-0.5 0.6h-3q-0.5 0-0.5-0.6zm8.3-16.4h-4.3v6.2h4.3q1.5 0 2.4-0.9 1-0.9 1-2.2 0-1.3-1-2.2-0.9-0.9-2.4-0.9z"/><path  d="m201.1 131v-19.4q0-0.6 0.5-0.6h3q0.5 0 0.5 0.6v19.4q0 0.6-0.5 0.6h-3q-0.5 0-0.5-0.6z"/><path  d="m229.8 121.3q0 2.2-0.9 4.1-0.8 1.9-2.3 3.3-1.4 1.5-3.4 2.3-1.9 0.8-4.1 0.8-2.2 0-4.1-0.8-1.9-0.8-3.3-2.3-1.5-1.4-2.3-3.3-0.8-1.9-0.8-4.1 0-2.2 0.8-4.2 0.8-1.9 2.3-3.3 1.4-1.5 3.3-2.3 1.9-0.8 4.1-0.8 2.2 0 4.1 0.8 2 0.8 3.4 2.3 1.5 1.4 2.3 3.3 0.9 2 0.9 4.2zm-4.1 0q0-1.9-0.9-3.4-0.8-1.5-2.3-2.4-1.5-0.9-3.4-0.9-1.8 0-3.3 0.9-1.5 0.9-2.3 2.4-0.8 1.5-0.8 3.4 0 1.8 0.8 3.3 0.8 1.5 2.3 2.5 1.5 0.9 3.3 0.9 1.9 0 3.4-0.9 1.5-1 2.3-2.5 0.9-1.5 0.9-3.3z"/><path  d="m242 131v-19.5q0-0.5 0.5-0.5h6.6q2 0 3.9 0.8 1.8 0.8 3.3 2.2 1.5 1.4 2.4 3.2 0.8 1.9 0.8 4.1 0 2.1-0.8 3.9-0.7 1.8-2.2 3.2-1.4 1.4-3.2 2.3-1.9 0.8-4.1 0.9h-6.7q-0.5 0-0.5-0.6zm13.5-9.7q0-1.9-0.9-3.3-0.9-1.5-2.4-2.4-1.5-0.9-3.4-0.9h-2.8v13.1h2.8q1.9 0 3.4-0.9 1.5-0.8 2.4-2.3 0.9-1.5 0.9-3.3z"/><path  d="m262.6 131v-19.5q0-0.5 0.5-0.5h13.6q0.6 0 0.6 0.5v2.7q0 0.6-0.6 0.6h-10v4.2h7.6q0.6 0 0.6 0.5v2.7q0 0.5-0.6 0.5h-7.6v5.1h10.2q0.6 0 0.6 0.6v2.6q0 0.6-0.6 0.6h-13.8q-0.5 0-0.5-0.6z"/><path  d="m121.9 191.7v11.9q0 1.3 0.5 2.3 0.6 1.1 1.6 1.8 1 0.6 2.3 0.6 1.3 0 2.3-0.6 1-0.7 1.5-1.8 0.6-1 0.6-2.3v-11.9q0-0.2 0.1-0.4 0.2-0.2 0.5-0.2h2.7q0.3 0 0.5 0.2 0.2 0.2 0.2 0.4v11.9q0 1.7-0.6 3.3-0.7 1.5-1.8 2.7-1.2 1.1-2.7 1.8-1.6 0.6-3.3 0.6-1.8 0-3.3-0.6-1.5-0.7-2.7-1.8-1.2-1.2-1.8-2.7-0.7-1.6-0.7-3.3v-11.9q0-0.2 0.2-0.4 0.1-0.2 0.4-0.2h2.8q0.3 0 0.5 0.2 0.2 0.2 0.2 0.4z"/><path  d="m139 211.1v-19.4q0-0.6 0.5-0.6h13.3q0.5 0 0.5 0.6v2.7q0 0.5-0.5 0.5h-9.8v5.5h7.5q0.5 0 0.5 0.5v2.6q0 0.5-0.5 0.5h-7.5v7.1q0 0.6-0.5 0.6h-3q-0.5 0-0.5-0.6z"/><path  d="m156.3 211.1v-19.4q0-0.2 0.2-0.4 0.1-0.2 0.4-0.2h8.8q1.9 0 3.3 1 1.5 0.9 2.4 2.5 0.8 1.5 0.8 3.3 0 1.7-1 3.3-0.9 1.5-2.5 2.4l3.8 7.5q0.1 0.2 0 0.4-0.1 0.2-0.4 0.2h-3.6q-0.4 0-0.6-0.5l-3.3-6.6h-4.2v6.5q0 0.6-0.6 0.6h-2.9q-0.6 0-0.6-0.6zm8.4-16.4h-4.3v6.2h4.3q1.4 0 2.4-0.9 1-0.8 1-2.2 0-1.3-1-2.2-1-0.9-2.4-0.9z"/><path  d="m177.4 212q-1.3 0-2.6-0.5-1.2-0.6-2.1-1.6-0.3-0.2-0.2-0.4 0-0.2 0.2-0.3l1.6-1.9q0.3-0.3 0.5-0.3 0.1 0 0.3 0.2 0.3 0.2 0.8 0.5 0.5 0.4 1.4 0.4 0.8 0 1.4-0.5 0.5-0.6 0.5-1.4v-14.4q0-0.7 0.7-0.7h2.6q0.8 0 0.8 0.8v13.7q0 2.2-0.9 3.6-0.8 1.4-2.2 2.1-1.3 0.7-2.8 0.7z"/></svg>