<svg version="1.2" xmlns="http://www.w3.org/2000/svg" viewBox="0 0 600 200" width="600" height="200"><defs><clipPath clipPathUnits="userSpaceOnUse" id="cp1"><path d="m279.9 42.13v116.29h-273.62v-116.29z"/></clipPath><clipPath clipPathUnits="userSpaceOnUse" id="cp2"><path d="m291.63 42.47v116.25h-273.61v-116.25z"/></clipPath><clipPath clipPathUnits="userSpaceOnUse" id="cp3"><path d="m291.75 41.98v116.74h-275.43v-116.74z"/></clipPath><clipPath clipPathUnits="userSpaceOnUse" id="cp4"><path d="m291.63 42.47v115.95h-273.61v-115.95z"/></clipPath></defs><style>.a{fill:#fff}.b{fill:#accbf5}.c{fill:#004aad}</style><path fill-rule="evenodd" class="a" d="m-8-232.7h600v600h-600z"/><path fill-rule="evenodd" class="a" d="m609-185.8v609h-609v-609z"/><g clip-path="url(#cp1)"><path class="b" d="m279.7 107.3q0 0-0.8 0.1-0.9 0.2-2.6 0.4c-1.1 0.1-2.5 0.3-4.2 0.3-1.7 0-3.6-0.1-5.8-0.4-0.6-0.1-1.1-0.2-1.7-0.3q-0.2 0-0.4-0.1h-0.5q-0.4-0.1-0.8-0.3-1.8-0.4-3.7-1.1-1.9-0.7-3.9-1.6-1.9-1.1-3.9-2.3-1.1-0.7-2.1-1.3c-0.8-0.5-1.5-0.9-2.4-1.4-0.8-0.4-1.7-0.7-2.8-0.9-0.2-0.1-0.5-0.1-0.8-0.1q-0.2 0-0.4 0h-0.4q-0.1 0-0.2 0h-0.2q-0.3 0-0.5 0.1h-0.3l-0.2 0.1c-0.1 0-0.1 0-0.2 0.1q-0.8 0.2-1.6 0.6-0.7 0.4-1.3 1-0.7 0.5-1.2 1.2-0.5 0.6-1 1.3c-1.1 1.8-1.9 3.8-2.6 5.8-0.7 2.1-1.2 4.2-1.7 6.4-0.5 2.1-0.9 4.4-1.4 6.6q-0.2 0.8-0.4 1.6-0.1 0.2-0.2 0.4-0.1-0.3-0.2-0.7-0.3-0.8-0.5-1.7-0.5-1.7-0.8-3.5c-1-4.8-1.8-10-2.6-15.4-0.5-2.7-0.9-5.4-1.5-8.2q-0.3-2.1-0.9-4.3-0.2-1.1-0.6-2.2c-0.2-0.7-0.4-1.5-0.8-2.3-0.2-0.5-0.5-0.9-0.9-1.5-0.3-0.2-0.6-0.6-1.2-0.9-0.1-0.1-1-0.3-1.1-0.3-0.5 0-0.9 0-1.2 0.2q-0.6 0.2-0.9 0.4-0.3 0.3-0.5 0.5c-0.3 0.3-0.5 0.6-0.6 0.8-0.3 0.5-0.5 0.9-0.7 1.3-0.3 0.9-0.6 1.6-0.8 2.4q-0.3 1.2-0.6 2.3c-0.7 3-1.2 6-1.8 9.1-0.5 3.1-1 6.1-1.5 9.2q-0.3 1.4-0.6 2.8c-0.4-3.1-0.8-6.3-1.1-9.5q-0.6-5.1-1.2-10.4-0.3-2.6-0.6-5.3c-0.3-1.8-0.5-3.6-0.9-5.5q-0.2-0.7-0.4-1.4c-0.1-0.5-0.3-1.1-0.5-1.7-0.2-0.3-0.3-0.7-0.7-1.2-0.1-0.2-0.4-0.5-0.8-0.9 0-0.3-1.9-0.9-2.4-0.8-1.1 0-1.9 0.5-2.3 0.8-0.4 0.4-0.6 0.7-0.8 0.9-0.3 0.5-0.5 0.9-0.6 1.2-0.3 0.6-0.5 1.1-0.6 1.7q-0.2 0.7-0.4 1.5-0.3 1.4-0.6 2.8c-0.3 1.9-0.6 3.7-0.9 5.6q-0.3 2.7-0.7 5.5c-0.9 7.5-1.6 15-2.4 22.7q-0.6 5.4-1.3 10.9-0.2-1.9-0.4-3.8c-0.9-8.1-1.7-16.3-2.4-24.7-0.8-8.4-1.5-16.8-2.3-25.4-0.4-4.3-0.9-8.7-1.4-13q-0.4-3.3-0.9-6.7-0.3-1.6-0.6-3.4-0.2-0.9-0.5-1.8-0.1-0.5-0.3-1 0-0.2-0.2-0.5-0.1-0.3-0.2-0.7-0.2-0.3-0.4-0.8c-0.3-0.4-0.4-0.7-1.2-1.4-1.1-0.9-2.9-1.4-4.6-0.6-1.5 0.7-1.8 1.4-2.1 1.7-0.2 0.4-0.4 0.7-0.5 1-0.1 0.3-0.2 0.5-0.3 0.7-0.1 0.4-0.2 0.8-0.3 1.1-0.2 0.7-0.3 1.3-0.5 1.9q-0.1 0.9-0.3 1.8c-0.3 2.3-0.6 4.5-0.8 6.8-0.4 4.5-0.8 8.9-1.1 13.4-0.7 8.9-1.2 17.9-2 26.9q-0.2 1.8-0.4 3.7-0.5-2.6-1-5.2c-0.4-2.3-0.9-4.6-1.6-7q-0.2-0.9-0.5-1.9c-0.2-0.7-0.5-1.3-0.9-2.1q-0.1-0.3-0.3-0.7c-0.1-0.2-0.3-0.5-0.5-0.8-0.3-0.3-0.6-0.6-1.1-1-0.2-0.4-2.2-1-2.6-0.9-1.7 0-2.3 0.6-2.9 1-0.6 0.5-0.8 0.9-1.1 1.2q-0.3 0.4-0.4 0.8-0.2 0.4-0.3 0.7-0.3 0.6-0.4 1.1-0.2 0.5-0.3 1-0.3 1-0.4 2c-0.3 1.2-0.5 2.4-0.6 3.6-0.4 2.4-0.6 4.8-0.8 7.1-0.5 4.7-0.8 9.4-1.3 14q-0.1 1.1-0.2 2.2c-0.7-4-1.4-8-2.1-12.1-0.7-4.7-1.5-9.4-2.4-14.1q-0.6-3.5-1.4-7.1-0.4-1.8-1-3.7-0.3-0.9-0.6-1.9-0.2-0.5-0.5-1.1c-0.2-0.3-0.4-0.7-0.7-1.2q-0.2-0.4-0.7-0.8c-0.3-0.3-0.7-0.7-1.5-1-1.1-0.4-1.6-0.3-2.8 0-0.8 0.3-1.3 0.7-1.6 1.1-0.3 0.3-0.5 0.6-0.7 0.9q-0.2 0.3-0.3 0.7-0.3 0.6-0.5 1.1-0.4 1.1-0.6 2-0.2 1-0.4 1.9c-0.5 2.5-0.8 4.9-1.1 7.3-0.6 4.8-1 9.6-1.4 14.4-0.5 4.7-0.9 9.4-1.4 14.1q-0.2 1.8-0.4 3.6-0.3-1.4-0.5-2.9c-0.8-4.7-1.4-9.4-2.2-14.1-0.3-2.4-0.7-4.7-1.2-7.1q-0.3-1.8-0.8-3.7c-0.2-0.6-0.4-1.3-0.6-2-0.1-0.3-0.3-0.7-0.5-1.1-0.1-0.3-0.3-0.5-0.5-0.8-0.2-0.3-0.4-0.7-1.1-1.1-0.7-0.5-2.4-0.7-3.3-0.2-0.9 0.5-1.2 0.9-1.4 1.2-0.3 0.4-0.4 0.6-0.5 0.9q-0.2 0.3-0.3 0.6-0.2 0.6-0.4 1.1-0.1 0.5-0.2 1c-0.3 1.3-0.5 2.5-0.7 3.8-0.3 2.4-0.6 4.8-0.8 7.2-0.4 4.7-0.7 9.5-1.1 14.2q-0.4 7.1-0.8 14.1-0.1 1.6-0.2 3.2-0.2-1.2-0.3-2.4c-0.8-9.2-1.6-18.5-2.4-27.6q-0.5-6.9-1.2-13.8c-0.5-4.5-1-9.1-1.6-13.6-0.3-2.3-0.6-4.6-1.1-6.9-0.2-1.1-0.5-2.3-0.9-3.5q-0.1-0.5-0.3-1c-0.1-0.3-0.3-0.7-0.5-1.1-0.1-0.2-0.3-0.4-0.5-0.6-0.2-0.3-0.5-0.6-1-0.9-1.1-0.5-1.2-0.4-2.4-0.2-0.7 0.3-1 0.7-1.3 0.9q-0.3 0.4-0.5 0.7-0.1 0.4-0.3 0.6-0.2 0.6-0.4 1c-0.2 0.7-0.3 1.3-0.5 1.8q-0.4 1.8-0.7 3.5c-0.4 2.3-0.7 4.5-1 6.7-0.6 4.5-1.1 8.9-1.6 13.3-0.5 4.4-1 8.8-1.6 13.1-0.3 1.9-0.6 3.8-1 5.6q-0.2-1.1-0.4-2.1-0.5-3.2-0.9-6.4c-0.5-4.2-0.9-8.4-1.3-12.7q-0.6-6.3-1.2-12.6-0.5-6.3-1.1-12.5c-0.4-4.1-0.8-8.2-1.4-12.3-0.2-2.1-0.5-4.1-0.9-6.2q-0.2-0.8-0.4-1.6c-0.1-0.5-0.2-1.1-0.5-1.6-0.1-0.3-0.2-0.6-0.4-1-0.1-0.2-0.2-0.4-0.5-0.7-0.1-0.2-1.2-0.8-1.8-0.7-0.9 0.1-1.3 0.6-1.5 0.8-0.2 0.3-0.3 0.5-0.5 0.6-0.2 0.4-0.3 0.7-0.4 1-0.2 0.6-0.3 1.1-0.4 1.7q-0.2 0.7-0.4 1.5-0.2 1.6-0.5 3.1-0.4 3-0.7 6-0.6 6-1.1 11.8-0.5 5.9-0.9 11.7c-0.6 7.7-1.1 15.2-1.8 22.6q-0.4 5.6-1 11c-0.3 3.6-0.7 7.2-1.3 10.7q-0.3 2.6-0.8 5.2-0.3 1.3-0.6 2.5c-0.2 0.8-0.4 1.6-0.7 2.3q-0.1 0.2-0.2 0.4-0.2-0.5-0.5-1-0.4-1.1-0.7-2.3-0.4-1.2-0.7-2.5c-0.8-3.2-1.4-6.5-2-9.8q-0.9-4.9-1.7-9.8c-1.1-6.4-2.1-12.7-3.3-18.7-0.6-3.1-1.2-6.1-2-9q-0.4-1.1-0.7-2.2c-0.3-0.8-0.6-1.5-0.9-2.2q-0.3-0.6-0.7-1.1-0.2-0.3-0.5-0.6c-0.2-0.2-0.5-0.4-0.8-0.5-0.2-0.1-0.6-0.1-0.6-0.1-0.3 0-0.4 0.1-0.6 0.1-0.4 0.2-0.7 0.4-0.9 0.6q-0.3 0.3-0.5 0.5-0.1 0.3-0.3 0.6c-0.4 0.8-0.6 1.5-0.8 2.2q-0.4 1.1-0.6 2.2-0.5 2.1-0.9 4.2c-0.5 2.8-0.9 5.5-1.3 8.2-0.7 5.4-1.4 10.6-2.3 15.5-0.5 2.4-1 4.8-1.7 7.1-0.3 1.1-0.7 2.2-1.2 3.2-0.3 0.4-0.6 0.9-0.9 1.2q-0.2 0.2-0.4 0.3-0.1 0-0.1 0c0 0-0.1 0-0.2 0 0 0 0 0 0 0q-0.1 0-0.2 0c0 0-0.1 0-0.2-0.1q-0.1 0-0.2-0.1c-0.2-0.1-0.4-0.3-0.5-0.5q-0.5-0.6-0.9-1.3c-0.5-0.9-1-1.9-1.3-2.9-0.8-2-1.5-4-2.1-6-1.3-4-2.4-7.8-3.7-11.3-0.7-1.8-1.3-3.5-2.1-5-0.7-1.6-1.6-3.2-2.7-4.5q-0.4-0.5-0.8-0.9c-0.4-0.3-0.7-0.6-1.1-0.8-0.2-0.1-0.4-0.2-0.6-0.3q-0.1 0-0.3-0.1h-0.1l-0.2-0.1q-0.2 0-0.4 0l-0.2-0.1c-0.1 0-0.2 0-0.2 0h-0.2-0.3c-0.9 0.1-1.7 0.5-2.3 0.9-0.6 0.5-1.2 1-1.6 1.5-1 1.1-1.7 2.2-2.4 3.3q-0.9 1.6-1.7 3.2-0.7 1.5-1.3 2.9-0.5 1.4-1 2.6-0.9 2.4-1.4 4-0.6 1.7-0.8 2.5-0.3 0.9-0.3 0.9l0.7 0.2q0 0 0.3-0.8 0.3-0.9 0.9-2.5 0.5-1.6 1.4-4 0.5-1.2 1.1-2.6 0.6-1.3 1.3-2.8 0.7-1.5 1.7-3.1c0.6-1 1.3-2.1 2.2-3.1q0.7-0.7 1.5-1.3c0.6-0.3 1.2-0.6 1.8-0.7h0.2 0.1c0.1 0 0.1 0 0.1 0l0.3 0.1q0.1 0 0.2 0h0.1l0.2 0.1q0.1 0 0.2 0.1c0.1 0 0.3 0.1 0.4 0.2 0.3 0.2 0.6 0.4 0.9 0.6q0.4 0.4 0.8 0.9c0.9 1.1 1.7 2.6 2.4 4.2q1.1 2.3 2 4.9c1.2 3.5 2.3 7.3 3.5 11.3 0.6 2 1.3 4.1 2.1 6.1 0.4 1.1 0.8 2.1 1.4 3.2 0.3 0.5 0.6 1 1 1.5q0.3 0.4 0.7 0.7c0.2 0.1 0.4 0.2 0.5 0.3 0.2 0.1 0.4 0.2 0.6 0.2q0.2 0.1 0.3 0.1c0.1 0 0.2 0 0.4 0 0.1 0 0.1 0 0.3-0.1q0.2 0 0.3 0c0.4-0.2 0.7-0.4 1-0.7 0.5-0.5 0.9-1 1.2-1.6 0.6-1.1 1-2.3 1.4-3.4 0.7-2.4 1.3-4.8 1.7-7.3 1-5 1.8-10.2 2.6-15.5 0.4-2.7 0.9-5.4 1.4-8.2q0.3-2 0.8-4.1 0.3-1 0.6-2c0.2-0.6 0.4-1.3 0.7-1.8q0.1-0.2 0.3-0.4 0.1-0.2 0.2-0.2 0 0 0-0.1 0 0.1 0 0.1 0.1 0.1 0.2 0.2 0.3 0.4 0.5 0.8 0.4 0.9 0.8 2 0.3 1 0.6 2.1c0.7 2.8 1.3 5.8 1.9 8.8 1.1 6 2.1 12.3 3.1 18.7q0.7 4.9 1.6 9.8c0.5 3.3 1.1 6.7 1.9 10.1q0.3 1.2 0.7 2.5c0.2 0.9 0.5 1.7 0.8 2.6q0.3 0.7 0.7 1.3 0.1 0.4 0.4 0.8c0.2 0.2 0.5 0.5 0.9 0.8 0.3 0.1 0.5 0.2 0.9 0.2 0.7 0 0.3 0 0.9-0.1 0.3-0.2 0.5-0.3 0.7-0.4q0.2-0.3 0.4-0.4c0.4-0.6 0.6-1.1 0.8-1.5 0.4-0.9 0.7-1.8 0.9-2.7q0.4-1.3 0.6-2.7 0.6-2.6 1-5.3c0.5-3.6 1-7.1 1.4-10.8q0.6-5.5 1.1-11c0.7-7.4 1.3-15 2-22.7q0.5-5.7 1-11.6 0.5-5.8 1.2-11.7 0.3-3 0.8-5.9 0.1-0.9 0.3-1.8 0.3 2.4 0.6 4.8c0.5 4 0.9 8.1 1.2 12.3q0.6 6.2 1.1 12.5 0.5 6.2 1 12.6c0.4 4.3 0.8 8.5 1.3 12.8q0.3 3.3 0.8 6.6 0.3 1.6 0.7 3.3 0.1 0.8 0.4 1.7c0.1 0.5 0.3 1.1 0.6 1.8 0.2 0.3 0.3 0.7 0.6 1.1 0.2 0.3 0.4 0.5 0.9 0.8 0.3 0.3 1.4 0.6 1.8 0.4 1.1-0.2 1.2-0.5 1.6-0.8q0.4-0.3 0.6-0.7c0.2-0.4 0.4-0.7 0.5-1 0.3-0.7 0.5-1.2 0.6-1.8q0.3-0.9 0.4-1.7c0.6-2.2 0.9-4.4 1.3-6.6 0.6-4.4 1.2-8.8 1.7-13.2 0.5-4.4 1.1-8.8 1.7-13.2q0.4-3.3 1-6.6 0.1-0.1 0.1-0.3c0.3 1.9 0.6 3.8 0.9 5.8 0.5 4.5 1 9 1.4 13.5q0.6 6.8 1.1 13.7c0.8 9.1 1.4 18.4 2.2 27.7q0.3 3.5 0.7 7 0.3 3.5 0.8 7c0.1 1.2 0.3 2.4 0.5 3.6 0.2 0.7 0.3 1.3 0.5 2q0.1 0.3 0.2 0.6 0.1 0.3 0.3 0.7c0.3 0.3 0.3 0.7 1.4 1.4 1.2 1.2 3.6-0.2 3.8-0.7 0.4-0.5 0.5-0.8 0.6-1.1q0.2-0.3 0.3-0.6c0.1-0.4 0.2-0.8 0.3-1.1q0.2-1 0.3-1.9 0.3-1.8 0.5-3.6 0.4-3.6 0.7-7.1 0.2-3.5 0.5-7.1 0.5-7 1-14.1c0.3-4.7 0.7-9.4 1.1-14.1q0.1-0.9 0.2-1.9 0.2 1.3 0.4 2.5c0.7 4.7 1.3 9.4 2.1 14.2 0.3 2.3 0.7 4.7 1.2 7.2 0.3 1.2 0.6 2.4 1 3.7q0.1 0.5 0.3 1 0.2 0.5 0.5 1.1 0.1 0.3 0.4 0.7c0.1 0.3 0.3 0.5 0.7 0.9 0.3 0.3 0.8 0.8 1.8 1 0.8 0.4 2.1 0 2.9-0.5 0.6-0.4 0.8-0.7 1.1-1 0.2-0.4 0.3-0.6 0.5-0.8 0.2-0.5 0.4-0.9 0.5-1.2 0.3-0.8 0.4-1.4 0.6-2.1 0.3-1.3 0.5-2.5 0.7-3.7 0.4-2.5 0.7-4.9 1-7.3 0.6-4.7 1-9.5 1.5-14.2 0.4-4.8 0.9-9.5 1.5-14.2q0.2-1.2 0.4-2.5 0.4 2.3 0.8 4.7c0.8 4.6 1.5 9.3 2.3 14 0.7 4.7 1.4 9.4 2.3 14.1q0.3 1.8 0.7 3.6 0.3 1.8 0.8 3.6 0.3 0.9 0.6 1.9 0.2 0.5 0.4 1 0.2 0.6 0.5 1.2 0.1 0.3 0.4 0.7c0.2 0.3 0.4 0.5 0.7 0.9 0.4 0.3 0.9 0.8 1.9 1.1 1.1 0.4 2.4 0.2 3.3-0.4 0.8-0.4 1.1-0.9 1.4-1.2q0.3-0.5 0.5-0.9c0.3-0.5 0.4-0.9 0.6-1.3 0.3-0.7 0.4-1.4 0.6-2.1q0.2-0.9 0.4-1.9 0.3-1.8 0.6-3.6 0.4-3.6 0.8-7.1c0.5-4.7 0.9-9.4 1.4-14q0-0.2 0-0.4 0.4 1.9 0.7 3.8c0.4 2.3 0.9 4.6 1.4 6.9 0.2 1.2 0.5 2.4 0.9 3.6 0.2 0.7 0.4 1.3 0.6 2 0.2 0.4 0.3 0.7 0.6 1.2q0.1 0.3 0.4 0.7c0.2 0.3 0.4 0.6 0.8 1 0.4 0.3 1 0.9 2.1 1.2 1.4 0.2 2 0.3 3.4-0.4 0.8-0.5 1.2-0.9 1.5-1.3q0.4-0.5 0.6-0.9c0.3-0.5 0.5-0.9 0.7-1.3q0.2-0.6 0.3-1.1 0.3-1 0.5-1.9 0.2-1 0.4-1.9c0.5-2.4 0.8-4.7 1-7q0.4-3.5 0.8-6.9 0.6-6.8 1.1-13.6 0.5-6 0.9-11.9 0 0.1 0 0.2c0.9 8.5 1.7 17 2.5 25.3 0.8 8.4 1.7 16.7 2.7 24.9 0.5 4.1 1 8.2 1.8 12.3q0.2 1.6 0.6 3.1 0.2 0.8 0.4 1.7c0.2 0.5 0.3 1.1 0.6 1.7q0.1 0.3 0.2 0.5 0.1 0.3 0.2 0.6c0.2 0.2 0.2 0.4 0.4 0.6 0.2 0.3 0.4 0.6 0.7 0.9 0.4 0.3 0.8 0.8 1.9 1.2 1.4 0.2 1.9 0.3 3.2-0.3 0.8-0.5 1.1-0.8 1.4-1.2q0.4-0.5 0.6-0.8c0.2-0.5 0.4-0.8 0.5-1.2q0.2-0.5 0.3-0.9 0.3-0.9 0.5-1.7 0.4-1.6 0.6-3.2 0.3-1.5 0.5-3 0.4-3 0.7-5.9c0.5-4 0.9-7.9 1.2-11.7 0.7-7.7 1.4-15.3 2.1-22.6q0.2-1.8 0.4-3.5 0 0.2 0 0.3 0.7 5.2 1.3 10.3c0.5 3.4 0.9 6.8 1.6 10.2q0.2 1.2 0.5 2.5c0.1 0.9 0.3 1.7 0.6 2.6q0.2 0.7 0.5 1.5 0.2 0.3 0.4 0.8c0.1 0.3 0.3 0.6 0.7 1 0.1 0.2 0.4 0.5 0.7 0.7 0.4 0.2 0.9 0.5 1.6 0.6 0.8 0.1 1.1-0.1 1.8-0.3 0.5-0.3 0.8-0.5 1-0.7 0.4-0.5 0.6-0.8 0.8-1.1q0.3-0.5 0.4-0.8c0.2-0.6 0.4-1 0.5-1.5q0.2-0.6 0.4-1.3 0.3-1.2 0.5-2.5 0.5-2.4 0.9-4.8c0.5-3.2 0.9-6.3 1.4-9.3 0.4-3 0.9-6 1.5-8.9q0.2-0.9 0.4-1.8 0.2 0.6 0.4 1.2 0.5 2 0.9 4.1c0.6 2.7 1.1 5.4 1.6 8 1.1 5.4 2 10.5 3.1 15.5q0.5 1.9 1 3.7 0.3 0.9 0.6 1.9c0.2 0.6 0.5 1.2 0.8 1.9 0.2 0.3 0.4 0.6 0.7 1q0.3 0.3 0.7 0.6c0.3 0.2 0.7 0.4 1.2 0.5 0.3 0 0.8 0 0.7 0 0.1 0 0.6-0.2 0.8-0.3q0.3-0.2 0.4-0.3c0.2-0.2 0.3-0.3 0.4-0.4 0.3-0.4 0.5-0.8 0.7-1.2 0.3-0.7 0.4-1.3 0.6-1.9q0.2-0.9 0.4-1.8c0.4-2.3 0.8-4.5 1.2-6.6 0.4-2.2 0.8-4.2 1.4-6.1 0.6-2 1.2-3.8 2.2-5.3q0.7-1.2 1.6-2 0.4-0.4 0.9-0.7 0.5-0.3 1-0.5c0 0 0.2-0.1 0.1-0.1h0.2l0.3-0.1h0.2 0.1q0.1 0 0.2-0.1h0.2q0.2 0 0.3 0c0.2 0 0.4 0.1 0.6 0.1 0.7 0.1 1.4 0.3 2.2 0.7q1.1 0.5 2.2 1.1 1.1 0.6 2.1 1.2 2.1 1.3 4.2 2.2 2.1 1 4.1 1.6 2.1 0.7 3.9 1.1 0.5 0 1 0.1l0.2 0.1h0.2q0.2 0 0.5 0.1c0.5 0.1 1.1 0.1 1.7 0.2 2.3 0.2 4.3 0.2 6 0.1 1.7-0.1 3.2-0.3 4.3-0.4q1.8-0.3 2.6-0.6 0.9-0.2 0.9-0.2zm-62.6-20.5q0 0 0.1 0.1-0.1-0.1-0.1-0.1zm-9.6 31c0 0-0.1 0 0 0q0 0 0 0zm-9-37.6q0 0 0 0zm-11 62q0-0.1 0-0.1 0 0.1 0 0.1zm-14.2-91.3q0-0.1 0 0zm-21.4 78.9q0 0 0 0 0 0 0 0zm-22.8 1.5q0 0 0 0 0 0 0 0zm-9.4-36.8q0 0 0 0zm109.2 30.4c0 0 0 0 0 0q0 0 0 0z"/></g><g clip-path="url(#cp2)"><g clip-path="url(#cp3)"><g clip-path="url(#cp4)"><path class="c" d="m291.5 107.3q0 0-0.9 0.1-0.9 0.2-2.6 0.4c-1.1 0.1-2.5 0.3-4.2 0.3-1.7 0-3.6-0.1-5.8-0.4-0.5-0.1-1.1-0.2-1.6-0.3q-0.3 0-0.5-0.1h-0.2-0.2q-0.4-0.1-0.9-0.3-1.8-0.4-3.7-1.1-1.9-0.7-3.8-1.6-2-1.1-4-2.3-1-0.7-2.1-1.3c-0.7-0.5-1.5-0.9-2.3-1.4-0.9-0.4-1.8-0.7-2.8-0.9-0.3-0.1-0.6-0.1-0.8-0.1q-0.2 0-0.4 0h-0.5q0 0-0.2 0h-0.2q-0.2 0-0.4 0.1h-0.4l-0.1 0.1c-0.2 0-0.2 0-0.3 0.1q-0.8 0.2-1.5 0.6-0.8 0.4-1.4 1-0.6 0.5-1.1 1.2-0.6 0.6-1 1.3c-1.2 1.8-2 3.8-2.7 5.8-0.7 2.1-1.2 4.2-1.7 6.4-0.5 2.1-0.9 4.4-1.4 6.6q-0.2 0.8-0.4 1.6-0.1 0.2-0.1 0.4-0.2-0.3-0.3-0.7-0.3-0.8-0.5-1.7-0.4-1.7-0.8-3.5c-1-4.8-1.7-10-2.6-15.4q-0.6-4-1.4-8.2-0.4-2.1-0.9-4.3-0.3-1.1-0.6-2.2c-0.2-0.7-0.5-1.5-0.9-2.3-0.2-0.5-0.4-0.9-0.9-1.5-0.2-0.2-0.5-0.6-1.1-0.9-0.1-0.1-1.1-0.3-1.1-0.3-0.5 0-0.9 0-1.3 0.2q-0.5 0.2-0.9 0.4-0.3 0.3-0.5 0.5c-0.2 0.3-0.4 0.6-0.6 0.8-0.3 0.5-0.5 0.9-0.6 1.3-0.4 0.9-0.6 1.6-0.8 2.4q-0.4 1.2-0.6 2.3c-0.7 3-1.3 6-1.8 9.1-0.5 3.1-1 6.1-1.6 9.2q-0.3 1.4-0.5 2.8c-0.5-3.1-0.9-6.3-1.2-9.5q-0.6-5.1-1.1-10.4-0.3-2.6-0.7-5.3c-0.2-1.8-0.5-3.6-0.9-5.5q-0.1-0.7-0.3-1.4c-0.2-0.5-0.3-1.1-0.6-1.7-0.1-0.3-0.3-0.7-0.6-1.2-0.2-0.2-0.4-0.5-0.9-0.9 0-0.3-1.8-0.9-2.4-0.8-1.1 0-1.8 0.5-2.2 0.8-0.5 0.4-0.7 0.7-0.9 0.9-0.3 0.5-0.4 0.9-0.6 1.2-0.3 0.6-0.4 1.1-0.6 1.7q-0.2 0.7-0.4 1.5-0.3 1.4-0.6 2.8c-0.3 1.9-0.6 3.7-0.8 5.6q-0.4 2.7-0.7 5.5c-0.9 7.5-1.7 15-2.5 22.7q-0.6 5.4-1.2 10.9-0.3-1.9-0.5-3.8c-0.9-8.1-1.6-16.3-2.4-24.7-0.7-8.4-1.4-16.8-2.3-25.4-0.4-4.3-0.8-8.7-1.4-13q-0.4-3.3-0.9-6.7-0.3-1.6-0.6-3.4-0.2-0.9-0.4-1.8-0.2-0.5-0.3-1-0.1-0.2-0.2-0.5-0.1-0.3-0.3-0.7-0.1-0.3-0.4-0.8c-0.2-0.4-0.4-0.7-1.2-1.4-1.1-0.9-2.9-1.4-4.6-0.6-1.4 0.7-1.7 1.4-2 1.7-0.3 0.4-0.5 0.7-0.6 1q-0.1 0.4-0.3 0.7c-0.1 0.4-0.2 0.8-0.3 1.1-0.2 0.7-0.3 1.3-0.4 1.9q-0.2 0.9-0.3 1.8c-0.4 2.3-0.6 4.5-0.8 6.8-0.5 4.5-0.8 8.9-1.2 13.4-0.6 8.9-1.2 17.9-2 26.9q-0.2 1.8-0.4 3.7-0.4-2.6-0.9-5.2c-0.5-2.3-1-4.6-1.6-7q-0.3-0.9-0.6-1.9c-0.2-0.7-0.4-1.3-0.8-2.1q-0.2-0.3-0.4-0.7c-0.1-0.2-0.3-0.5-0.5-0.8-0.2-0.3-0.5-0.6-1.1-1-0.2-0.4-2.1-1-2.5-0.9-1.7 0-2.4 0.6-3 1-0.5 0.5-0.8 0.9-1 1.2q-0.3 0.4-0.5 0.8-0.2 0.4-0.3 0.7-0.3 0.6-0.4 1.1-0.2 0.5-0.3 1-0.2 1-0.4 2-0.4 1.8-0.6 3.6-0.5 3.6-0.8 7.1c-0.4 4.7-0.8 9.4-1.2 14q-0.1 1.1-0.3 2.2c-0.7-4-1.4-8-2-12.1-0.8-4.7-1.6-9.4-2.4-14.1-0.5-2.3-0.9-4.7-1.5-7.1-0.3-1.2-0.6-2.4-0.9-3.7q-0.3-0.9-0.7-1.9-0.2-0.5-0.4-1.1c-0.2-0.3-0.4-0.7-0.8-1.2q-0.2-0.4-0.6-0.8c-0.3-0.3-0.8-0.7-1.6-1-1.1-0.4-1.5-0.3-2.8 0-0.8 0.3-1.2 0.7-1.6 1.1-0.3 0.3-0.5 0.6-0.6 0.9q-0.3 0.3-0.4 0.7-0.3 0.6-0.5 1.1c-0.2 0.7-0.4 1.4-0.6 2q-0.2 1-0.4 1.9c-0.4 2.5-0.8 4.9-1.1 7.3-0.5 4.8-1 9.6-1.4 14.4-0.4 4.7-0.8 9.4-1.3 14.1q-0.2 1.8-0.5 3.6-0.2-1.4-0.5-2.9c-0.7-4.7-1.4-9.4-2.1-14.1q-0.6-3.5-1.2-7.1c-0.3-1.2-0.5-2.5-0.9-3.7-0.1-0.6-0.3-1.3-0.6-2-0.1-0.3-0.3-0.7-0.5-1.1q-0.1-0.4-0.4-0.8c-0.3-0.3-0.5-0.7-1.2-1.1-0.6-0.5-2.4-0.7-3.2-0.2-1 0.5-1.2 0.9-1.5 1.2-0.2 0.4-0.4 0.6-0.5 0.9q-0.1 0.3-0.3 0.6-0.2 0.6-0.3 1.1-0.2 0.5-0.3 1c-0.3 1.3-0.5 2.5-0.6 3.8-0.4 2.4-0.6 4.8-0.8 7.2-0.5 4.7-0.8 9.5-1.1 14.2q-0.5 7.1-0.9 14.1-0.1 1.6-0.2 3.2-0.1-1.2-0.2-2.4c-0.9-9.2-1.6-18.5-2.4-27.6q-0.6-6.9-1.3-13.8c-0.4-4.5-0.9-9.1-1.6-13.6-0.3-2.3-0.6-4.6-1.1-6.9-0.2-1.1-0.5-2.3-0.8-3.5q-0.2-0.5-0.4-1-0.1-0.5-0.5-1.1c-0.1-0.2-0.2-0.4-0.4-0.6-0.2-0.3-0.5-0.6-1.1-0.9-1-0.5-1.2-0.4-2.4-0.2-0.7 0.3-1 0.7-1.2 0.9q-0.4 0.4-0.5 0.7-0.2 0.4-0.3 0.6-0.3 0.6-0.4 1-0.3 1-0.5 1.8-0.5 1.8-0.8 3.5-0.5 3.4-1 6.7c-0.6 4.5-1.1 8.9-1.6 13.3-0.5 4.4-1 8.8-1.6 13.1-0.3 1.9-0.5 3.8-0.9 5.6q-0.2-1.1-0.4-2.1-0.5-3.2-0.9-6.4c-0.6-4.2-1-8.4-1.4-12.7q-0.6-6.3-1.1-12.6-0.6-6.3-1.2-12.5c-0.4-4.1-0.8-8.2-1.3-12.3-0.3-2.1-0.6-4.1-1-6.2q-0.1-0.8-0.3-1.6c-0.2-0.5-0.3-1.1-0.5-1.6-0.1-0.3-0.2-0.6-0.5-1-0.1-0.2-0.2-0.4-0.5-0.7-0.1-0.2-1.1-0.8-1.7-0.7-0.9 0.1-1.3 0.6-1.6 0.8-0.2 0.3-0.3 0.5-0.4 0.6-0.2 0.4-0.3 0.7-0.4 1q-0.3 0.9-0.5 1.7-0.2 0.7-0.3 1.5-0.3 1.6-0.5 3.1-0.4 3-0.7 6c-0.5 4-0.8 7.9-1.1 11.8q-0.5 5.9-0.9 11.7c-0.6 7.7-1.2 15.2-1.8 22.6q-0.5 5.6-1 11c-0.4 3.6-0.8 7.2-1.3 10.7q-0.4 2.6-0.9 5.2-0.2 1.3-0.5 2.5c-0.2 0.8-0.5 1.6-0.8 2.3q-0.1 0.2-0.1 0.4-0.3-0.5-0.5-1-0.5-1.1-0.8-2.3-0.4-1.2-0.7-2.5c-0.7-3.2-1.4-6.5-2-9.8q-0.9-4.9-1.7-9.8c-1-6.4-2.1-12.7-3.2-18.7-0.7-3.1-1.3-6.1-2.1-9q-0.3-1.1-0.7-2.2-0.4-1.1-0.9-2.2-0.3-0.6-0.7-1.1-0.2-0.3-0.5-0.6c-0.2-0.2-0.4-0.4-0.8-0.5-0.2-0.1-0.5-0.1-0.5-0.1-0.3 0-0.5 0.1-0.7 0.1-0.4 0.2-0.6 0.4-0.8 0.6q-0.3 0.3-0.5 0.5-0.2 0.3-0.3 0.6c-0.4 0.8-0.7 1.5-0.9 2.2q-0.3 1.1-0.6 2.2-0.5 2.1-0.8 4.2c-0.5 2.8-0.9 5.5-1.3 8.2-0.8 5.4-1.5 10.6-2.4 15.5-0.5 2.4-1 4.8-1.6 7.1-0.4 1.1-0.8 2.2-1.3 3.2-0.2 0.4-0.5 0.9-0.8 1.2q-0.3 0.2-0.5 0.3c0 0-0.1 0-0.1 0 0 0-0.1 0-0.1 0 0 0-0.1 0-0.1 0q-0.1 0-0.1 0c-0.1 0-0.2 0-0.2-0.1q-0.2 0-0.3-0.1c-0.2-0.1-0.3-0.3-0.5-0.5q-0.5-0.6-0.9-1.3c-0.5-0.9-0.9-1.9-1.3-2.9-0.8-2-1.5-4-2.1-6-1.3-4-2.4-7.8-3.7-11.3q-0.9-2.6-2-5c-0.8-1.6-1.6-3.2-2.7-4.5q-0.4-0.5-0.9-0.9c-0.3-0.3-0.7-0.6-1.1-0.8-0.1-0.1-0.3-0.2-0.5-0.3q-0.2 0-0.4-0.1h-0.1l-0.2-0.1q-0.2 0-0.3 0l-0.3-0.1c0 0-0.1 0-0.2 0h-0.1-0.4c-0.8 0.1-1.6 0.5-2.3 0.9-0.6 0.5-1.1 1-1.6 1.5-1 1.1-1.7 2.2-2.3 3.3q-1 1.6-1.7 3.2-0.7 1.5-1.3 2.9-0.6 1.4-1 2.6-0.9 2.4-1.5 4-0.5 1.7-0.8 2.5-0.3 0.9-0.3 0.9l0.8 0.2q0 0 0.3-0.8 0.2-0.9 0.8-2.5 0.6-1.6 1.5-4 0.4-1.2 1-2.6 0.6-1.3 1.3-2.8 0.8-1.5 1.7-3.1c0.6-1 1.4-2.1 2.3-3.1q0.6-0.7 1.4-1.3c0.6-0.3 1.2-0.6 1.8-0.7h0.3 0.1c0 0 0 0 0.1 0l0.3 0.1q0.1 0 0.2 0h0.1l0.1 0.1q0.1 0 0.2 0.1c0.2 0 0.3 0.1 0.5 0.2 0.3 0.2 0.6 0.4 0.8 0.6q0.4 0.4 0.8 0.9c1 1.1 1.8 2.6 2.5 4.2q1 2.3 1.9 4.9c1.2 3.5 2.3 7.3 3.6 11.3 0.6 2 1.2 4.1 2 6.1 0.4 1.1 0.9 2.1 1.4 3.2 0.3 0.5 0.6 1 1.1 1.5 0.2 0.2 0.4 0.5 0.7 0.7q0.2 0.2 0.5 0.3c0.2 0.1 0.3 0.2 0.5 0.2q0.2 0.1 0.4 0.1c0.1 0 0.2 0 0.3 0 0.1 0 0.2 0 0.3-0.1q0.2 0 0.3 0 0.6-0.3 1-0.7c0.6-0.5 0.9-1 1.2-1.6 0.6-1.1 1-2.3 1.4-3.4 0.8-2.4 1.3-4.8 1.8-7.3 1-5 1.7-10.2 2.5-15.5 0.5-2.7 0.9-5.4 1.4-8.2q0.4-2 0.9-4.1 0.2-1 0.5-2c0.2-0.6 0.5-1.3 0.8-1.8q0.1-0.2 0.2-0.4 0.1-0.2 0.2-0.2 0 0 0-0.1 0 0.1 0 0.1 0.1 0.1 0.3 0.2 0.2 0.4 0.4 0.8 0.5 0.9 0.8 2 0.3 1 0.6 2.1c0.8 2.8 1.4 5.8 1.9 8.8 1.2 6 2.1 12.3 3.1 18.7q0.8 4.9 1.6 9.8c0.6 3.3 1.2 6.7 2 10.1q0.3 1.2 0.6 2.5c0.3 0.9 0.5 1.7 0.9 2.6q0.2 0.7 0.6 1.3 0.2 0.4 0.5 0.8c0.2 0.2 0.4 0.5 0.9 0.8 0.2 0.1 0.5 0.2 0.8 0.2 0.7 0 0.3 0 0.9-0.1 0.4-0.2 0.5-0.3 0.7-0.4q0.3-0.3 0.4-0.4c0.4-0.6 0.7-1.1 0.9-1.5 0.4-0.9 0.6-1.8 0.9-2.7q0.3-1.3 0.6-2.7 0.5-2.6 0.9-5.3c0.6-3.6 1-7.1 1.4-10.8q0.6-5.5 1.1-11c0.7-7.4 1.4-15 2-22.7q0.5-5.7 1-11.6c0.4-3.9 0.8-7.8 1.2-11.7q0.4-3 0.8-5.9 0.1-0.9 0.3-1.8 0.4 2.4 0.7 4.8c0.4 4 0.8 8.1 1.2 12.3q0.5 6.2 1 12.5 0.5 6.2 1 12.6c0.4 4.3 0.8 8.5 1.3 12.8q0.4 3.3 0.9 6.6 0.2 1.6 0.6 3.3 0.2 0.8 0.4 1.7c0.2 0.5 0.4 1.1 0.6 1.8 0.2 0.3 0.4 0.7 0.7 1.1 0.2 0.3 0.4 0.5 0.8 0.8 0.3 0.3 1.5 0.6 1.8 0.4 1.2-0.2 1.3-0.5 1.6-0.8q0.4-0.3 0.6-0.7c0.3-0.4 0.4-0.7 0.5-1 0.3-0.7 0.5-1.2 0.7-1.8q0.2-0.9 0.4-1.7c0.5-2.2 0.9-4.4 1.2-6.6 0.7-4.4 1.2-8.8 1.7-13.2 0.6-4.4 1.1-8.8 1.7-13.2 0.3-2.2 0.7-4.4 1.1-6.6q0-0.1 0-0.3 0.5 2.8 0.9 5.8c0.6 4.5 1 9 1.4 13.5q0.7 6.8 1.2 13.7c0.7 9.1 1.4 18.4 2.2 27.7q0.3 3.5 0.6 7 0.3 3.5 0.8 7c0.2 1.2 0.3 2.4 0.6 3.6 0.1 0.7 0.2 1.3 0.5 2q0 0.3 0.1 0.6 0.2 0.3 0.4 0.7c0.2 0.3 0.2 0.7 1.3 1.4 1.3 1.2 3.7-0.2 3.9-0.7 0.3-0.5 0.4-0.8 0.6-1.1q0.1-0.3 0.2-0.6 0.2-0.6 0.3-1.1 0.2-1 0.3-1.9 0.3-1.8 0.5-3.6 0.4-3.6 0.7-7.1 0.3-3.6 0.5-7.1 0.5-7 1-14.1c0.3-4.7 0.7-9.4 1.2-14.1q0-0.9 0.1-1.9 0.2 1.3 0.4 2.5c0.7 4.7 1.4 9.4 2.1 14.2 0.4 2.3 0.8 4.7 1.3 7.2 0.2 1.2 0.5 2.4 0.9 3.7q0.2 0.5 0.4 1 0.1 0.5 0.4 1.1 0.2 0.3 0.4 0.7c0.2 0.3 0.4 0.5 0.7 0.9 0.3 0.3 0.8 0.8 1.9 1 0.8 0.4 2 0 2.8-0.5 0.6-0.4 0.9-0.7 1.1-1 0.2-0.4 0.4-0.6 0.5-0.8 0.2-0.5 0.4-0.9 0.5-1.2 0.3-0.8 0.5-1.4 0.6-2.1 0.3-1.3 0.6-2.5 0.8-3.7 0.4-2.5 0.7-4.9 0.9-7.3 0.6-4.7 1.1-9.5 1.5-14.2 0.5-4.8 0.9-9.5 1.5-14.2q0.2-1.2 0.4-2.5 0.5 2.3 0.9 4.7c0.8 4.6 1.5 9.3 2.2 14 0.7 4.7 1.4 9.4 2.3 14.1q0.3 1.8 0.7 3.6 0.4 1.8 0.9 3.6 0.2 0.9 0.5 1.9 0.2 0.5 0.4 1c0.1 0.4 0.3 0.8 0.5 1.2q0.2 0.3 0.4 0.7c0.2 0.3 0.4 0.5 0.8 0.9 0.3 0.3 0.8 0.8 1.9 1.1 1.1 0.4 2.3 0.2 3.2-0.4 0.8-0.4 1.1-0.9 1.4-1.2q0.4-0.5 0.6-0.9c0.2-0.5 0.4-0.9 0.5-1.3 0.3-0.7 0.5-1.4 0.6-2.1q0.2-0.9 0.4-1.9c0.3-1.2 0.4-2.4 0.6-3.6q0.5-3.6 0.8-7.1c0.5-4.7 0.9-9.4 1.4-14q0.1-0.2 0.1-0.4 0.3 1.9 0.7 3.8c0.4 2.3 0.8 4.6 1.3 6.9 0.3 1.2 0.6 2.4 0.9 3.6 0.2 0.7 0.4 1.3 0.7 2q0.2 0.5 0.5 1.2c0.1 0.2 0.3 0.4 0.5 0.7 0.1 0.3 0.4 0.6 0.7 1 0.4 0.3 1 0.9 2.1 1.2 1.5 0.2 2 0.3 3.4-0.4 0.9-0.5 1.2-0.9 1.5-1.3q0.5-0.5 0.7-0.9c0.3-0.5 0.4-0.9 0.6-1.3q0.2-0.6 0.4-1.1 0.3-1 0.5-1.9 0.2-1 0.4-1.9c0.4-2.4 0.7-4.7 1-7q0.4-3.5 0.7-6.9c0.4-4.5 0.8-9.1 1.1-13.6q0.5-6 0.9-11.9 0 0.1 0 0.2c0.9 8.5 1.7 17 2.5 25.3 0.9 8.4 1.7 16.7 2.7 24.9 0.5 4.1 1 8.2 1.8 12.3q0.3 1.6 0.6 3.1 0.2 0.8 0.5 1.7c0.1 0.5 0.3 1.1 0.5 1.7q0.1 0.3 0.2 0.5 0.1 0.3 0.3 0.6c0.1 0.2 0.2 0.4 0.4 0.6 0.1 0.3 0.3 0.6 0.6 0.9 0.4 0.3 0.9 0.8 1.9 1.2 1.5 0.2 1.9 0.3 3.3-0.3 0.8-0.5 1-0.8 1.4-1.2q0.3-0.5 0.5-0.8c0.3-0.5 0.4-0.8 0.6-1.2q0.2-0.5 0.3-0.9 0.3-0.9 0.4-1.7c0.3-1.1 0.5-2.1 0.7-3.2q0.2-1.5 0.4-3 0.5-3 0.8-5.9 0.6-6 1.2-11.7c0.7-7.7 1.3-15.3 2.1-22.6q0.1-1.8 0.3-3.5 0 0.2 0.1 0.3 0.6 5.2 1.3 10.3c0.4 3.4 0.9 6.8 1.5 10.2q0.2 1.2 0.5 2.5c0.2 0.9 0.4 1.7 0.7 2.6q0.2 0.7 0.4 1.5 0.2 0.3 0.4 0.8c0.2 0.3 0.4 0.6 0.7 1 0.2 0.2 0.4 0.5 0.8 0.7 0.3 0.2 0.9 0.5 1.5 0.6 0.8 0.1 1.1-0.1 1.9-0.3 0.4-0.3 0.7-0.5 0.9-0.7 0.5-0.5 0.7-0.8 0.8-1.1q0.3-0.5 0.5-0.8 0.3-0.8 0.5-1.5 0.2-0.6 0.3-1.3 0.3-1.2 0.6-2.5 0.5-2.4 0.8-4.8c0.5-3.2 1-6.3 1.4-9.3 0.5-3 0.9-6 1.5-8.9q0.2-0.9 0.4-1.8 0.2 0.6 0.4 1.2 0.5 2 1 4.1c0.6 2.7 1.1 5.4 1.6 8 1 5.4 1.9 10.5 3.1 15.5q0.4 1.9 0.9 3.7 0.3 0.9 0.6 1.9c0.3 0.6 0.5 1.2 0.9 1.9 0.2 0.3 0.4 0.6 0.7 1 0.1 0.2 0.3 0.4 0.6 0.6 0.3 0.2 0.7 0.4 1.2 0.5 0.3 0 0.8 0 0.7 0 0.1 0 0.7-0.2 0.8-0.3q0.3-0.2 0.5-0.3 0.2-0.2 0.3-0.4c0.4-0.4 0.5-0.8 0.7-1.2 0.3-0.7 0.5-1.3 0.6-1.9q0.2-0.9 0.4-1.8c0.5-2.3 0.8-4.5 1.2-6.6 0.4-2.2 0.9-4.2 1.4-6.1 0.6-2 1.3-3.8 2.2-5.3q0.7-1.2 1.6-2 0.4-0.4 0.9-0.7 0.5-0.3 1-0.5c0.1 0 0.2-0.1 0.1-0.1h0.2l0.3-0.1h0.3 0.1q0 0 0.1-0.1h0.3q0.1 0 0.3 0c0.1 0 0.3 0.1 0.5 0.1 0.7 0.1 1.5 0.3 2.2 0.7q1.1 0.5 2.2 1.1 1.1 0.6 2.2 1.2 2.1 1.3 4.2 2.2 2.1 1 4.1 1.6 2 0.7 3.9 1.1 0.4 0 0.9 0.1l0.2 0.1h0.3q0.2 0 0.4 0.1c0.6 0.1 1.2 0.1 1.8 0.2 2.2 0.2 4.2 0.2 6 0.1 1.7-0.1 3.1-0.3 4.3-0.4q1.7-0.3 2.6-0.6 0.8-0.2 0.8-0.2zm-62.5-20.5q0 0 0 0.1 0-0.1 0-0.1zm-9.7 31q0 0 0 0zm-8.9-37.6q-0.1 0 0 0zm-11.1 61.9q0 0 0.1 0-0.1 0.1-0.1 0zm-14.2-91.3q0 0 0 0zm-21.4 79q0 0 0 0 0 0 0 0zm-22.8 1.5q0 0 0 0 0 0 0 0zm-9.4-36.8q0 0 0 0zm109.3 30.4q0 0 0 0 0 0 0 0z"/></g></g></g><path  d="m300.5 79.9h10.5v2.6h-7.2v14.6h6.8v2.7h-6.8v20.2h-3.3z"/><path  d="m315.5 96.8q0-5.9 1.1-8.2 1.1-2.2 3-2.8 1.1-0.4 2.6-0.4 5.7 0 6.4 6.3 0.3 2.1 0.3 5.1v11.5q0 4-0.2 5.2-0.2 1.2-0.3 2-1 4.9-6.4 4.9-2.2 0-3.5-0.9-2.5-1.7-2.9-6.4-0.1-2-0.1-4.8zm10-0.9q0-5.8-1.6-7-0.7-0.6-1.6-0.6-2.6 0-3.1 2.9-0.4 1.8-0.4 4.7v13.5q0 5 0.9 6.5 0.9 1.5 2.7 1.5 1.9 0 2.5-2.1 0.6-2.1 0.6-5.9z"/><path  d="m338.8 89.2q0.5-1.6 2-2.7 1.6-1.1 3.7-1.1 2.1 0 3.5 1.7 1.4 1.8 1.4 5.3v27.6h-3.4v-27.9q0-2-0.9-2.8-0.9-0.9-2.4-0.9-3.9 0-3.9 3.8v27.8h-3.4v-34.2h3.4z"/><path  d="m355.7 96.9q0-6 1.1-8.2 1.1-2.3 3.1-2.9 1.1-0.4 2.6-0.4 1.5 0 2.6 0.4 1.6 0.5 2.8 2.9 0.8 1.7 0.8 8.5v5.6h-9.6v6.9q0 5.3 0.8 6.5 0.8 1.2 2.3 1.2 1.5 0 2.2-0.9 0.6-1 0.7-2.5 0.2-1.5 0.2-4.1v-2.6h3.3v1.1q0 5.1-0.3 7-0.9 5-5.7 5-4.1 0-5.5-2.6-0.9-1.6-1.2-3.8-0.2-2.2-0.2-5.7zm9.6 3.2v-4.6q0-3.9-0.3-5.1-0.5-2-2.5-2-2.7 0-3.2 3.6-0.2 1.4-0.2 3.5 0 0.2 0 0.4v4.2zm-6.7-18.8l9.1-3.7v3.3l-9.1 1.9z"/><path  d="m375.8 79.9h3.5v5.8h4v2.6h-4v26.9q0 1.1 0.2 1.5 0.3 0.3 0.9 0.5 0.7 0.1 2.9 0.1v2.9h-2.4q-3.2 0-4.2-1.2-0.5-0.6-0.7-1.5-0.2-0.9-0.2-2.5v-26.7h-3.4v-2.6h3.4z"/><path  d="m388.3 85.8h3.5v34.2h-3.5zm0-6.4h3.4v3.2h-3.4z"/><path  d="m398.4 96.6q0-5.7 1.1-8 1.1-2.2 3.1-2.8 1.1-0.4 3-0.4 1.9 0 3.5 1 1 0.7 1.7 2.7 0.6 1.9 0.6 7.6v1.1h-3.4v-2.1q0-3.9-0.3-5.1-0.5-2.1-2.5-2.1-2.5 0-3.1 2.9-0.3 1.5-0.3 4.5v13.7q0 4.6 0.3 5.5 0.4 0.9 0.7 1.3 0.7 0.9 2.3 0.9 1.7 0 2.3-1.5 0.5-1.4 0.5-3.1 0.1-1.7 0.1-2.9v-2.6h3.4v1q0 5.1-0.3 7-0.9 5.2-5.8 5.2-4.2 0-5.5-2.6-0.9-1.7-1.2-3.9-0.2-2.1-0.2-5.6z"/><path  d="m417.2 96q0-3.7 0.2-4.8 0.2-1 0.4-1.8 0.3-0.9 0.6-1.4 0.3-0.5 0.8-1.1 0.5-0.5 1.1-0.8 0.7-0.3 1.5-0.5 0.9-0.2 1.9-0.2 1.1 0 1.9 0.2 0.9 0.2 1.5 0.4 0.6 0.2 1.1 0.8 0.5 0.6 0.8 1 1.1 1.5 1.1 8.4v23.8h-3.4v-2.6q-0.3 0.9-1.5 1.9-1.1 0.9-3 0.9-2.7 0-4.1-2.2-1.3-2.3-1.3-6.6v-4.4q0-2.3 1.1-3.6 1.1-1.3 1.9-1.9 2.2-1.3 4.4-2.2 2.2-1 2.5-1.1v-3.8q0-3.3-0.3-3.9-0.2-0.6-0.4-1-0.5-1.1-2.4-1.1-1.9 0-2.5 1.6-0.5 1.6-0.5 6.1v0.8h-3.4zm9.5 4.9q-3.8 1.7-4.3 2.2-0.6 0.4-1.1 0.9-1.2 1.1-1.2 4.4v2.7q0 3.6 0.6 4.9 0.5 1.4 1.9 1.4 1.5 0 2.5-0.7 1.2-0.7 1.6-1.5z"/><path  d="m448.8 79.9h3.5l7.1 40.1h-3.3l-1.3-8.1h-8l-1.3 8.1h-3.2zm5.6 29.2l-3.7-22.7h-0.1l-3.4 22.7z"/><path  d="m463.6 96.6q0-5.7 1.1-8 1.1-2.2 3.1-2.8 1.1-0.4 3-0.4 1.9 0 3.5 1 1 0.7 1.7 2.7 0.6 1.9 0.6 7.6v1.1h-3.4v-2.1q0-3.9-0.3-5.1-0.5-2.1-2.5-2.1-2.5 0-3.1 2.9-0.3 1.5-0.3 4.5v13.7q0 4.6 0.3 5.5 0.4 0.9 0.7 1.3 0.7 0.9 2.3 0.9 1.7 0 2.3-1.5 0.5-1.4 0.5-3.1 0.1-1.7 0.1-2.9v-2.6h3.4v1q0 5.1-0.3 7-0.9 5.2-5.8 5.2-4.2 0-5.5-2.6-0.9-1.7-1.2-3.9-0.2-2.1-0.2-5.6z"/><path  d="m485.5 113.3q0 4 3.5 4 1.7 0 2.7-1.1 1-1.2 1-3.1v-27.3h3.4v34.2h-3.4v-3.4q-0.4 1.5-1.9 2.7-1.4 1.1-3.3 1.1-1.8 0-3.6-1.5-1.8-1.5-1.8-5.4v-27.7h3.4zm0.2-32.1l9.1-3.7v3.3l-9.1 1.9z"/><path  d="m502.5 93.1q0-3.8 1.8-5.7 1.8-2 5-2 3.2 0 4.6 2.5 1.5 2.5 1.5 8.5v1.8h-3.5v-2.5q0-3.6-0.6-5.4-0.7-1.8-2.2-1.8-1.6 0-2.4 1.1-0.8 1-0.8 3.6 0 0 0 0.1 0 4 3.7 7.6l1.8 1.7q4.5 4.5 4.5 10 0 3.6-1.6 5.7-1.5 2.1-4.9 2.1-3.4 0-5.1-2.3-1.6-2.3-1.6-7.4v-2.9h3.4v2.3q0 7.2 3.2 7.2 1.7 0 2.4-1 0.7-1.1 0.7-3.9 0-4.1-3.5-7.8l-1.9-1.8q-4.5-4.6-4.5-9.7z"/><path  d="m522.8 79.9h3.4v5.8h4v2.6h-4v26.9q0 1.1 0.2 1.5 0.3 0.3 1 0.5 0.7 0.1 2.8 0.1v2.9h-2.4q-3.2 0-4.1-1.2-0.6-0.6-0.8-1.5-0.1-0.9-0.1-2.5v-26.7h-3.4v-2.6h3.4z"/><path  d="m535.3 85.8h3.4v34.2h-3.4zm0-6.4h3.4v3.2h-3.4z"/><path  d="m545.3 96.6q0-5.7 1.1-8 1.2-2.2 3.1-2.8 1.1-0.4 3-0.4 2 0 3.5 1 1.1 0.7 1.7 2.7 0.7 1.9 0.7 7.6v1.1h-3.5v-2.1q0-3.9-0.3-5.1-0.5-2.1-2.5-2.1-2.5 0-3.1 2.9-0.3 1.5-0.3 4.5v13.7q0 4.6 0.4 5.5 0.3 0.9 0.7 1.3 0.6 0.9 2.3 0.9 1.6 0 2.2-1.5 0.6-1.4 0.6-3.1 0-1.7 0-2.9v-2.6h3.5v1q0 5.1-0.4 7-0.9 5.2-5.7 5.2-4.2 0-5.6-2.6-0.9-1.7-1.2-3.9-0.2-2.1-0.2-5.6z"/><path  d="m564.1 96q0-3.7 0.2-4.8 0.2-1 0.5-1.8 0.2-0.9 0.5-1.4 0.4-0.5 0.8-1.1 0.5-0.5 1.2-0.8 0.6-0.3 1.5-0.5 0.8-0.2 1.9-0.2 1 0 1.9 0.2 0.8 0.2 1.4 0.4 0.7 0.2 1.1 0.8 0.5 0.6 0.8 1 1.1 1.5 1.1 8.4v23.8h-3.4v-2.6q-0.3 0.9-1.4 1.9-1.2 0.9-3.1 0.9-2.6 0-4-2.2-1.4-2.3-1.4-6.6v-4.4q0-2.3 1.1-3.6 1.2-1.3 2-1.9 2.1-1.3 4.3-2.2 2.2-1 2.5-1.1v-3.8q0-3.3-0.2-3.9-0.3-0.6-0.4-1-0.5-1.1-2.4-1.1-2 0-2.5 1.6-0.6 1.6-0.6 6.1v0.8h-3.4zm9.5 4.9q-3.7 1.7-4.3 2.2-0.6 0.4-1 0.9-1.2 1.1-1.2 4.4v2.7q0 3.6 0.5 4.9 0.6 1.4 2 1.4 1.4 0 2.5-0.7 1.1-0.7 1.5-1.5z"/><path  d="m313.3 71v-19.4q-0.1-0.3 0.1-0.5 0.2-0.1 0.5-0.1h2.8q0.6 0 0.6 0.6v16.2h8.1q0.3 0 0.4 0.2 0.2 0.1 0.2 0.4v2.6q0 0.5-0.6 0.6h-11.5q-0.7 0-0.6-0.6z"/><path  d="m327.3 71l7.8-19.5q0.3-0.5 0.8-0.5h2.3q0.5 0 0.7 0.5l7.8 19.5q0.1 0.2 0 0.4-0.1 0.2-0.4 0.2h-3q-0.5 0-0.7-0.5l-1.4-3.4h-8.5l-1.3 3.4q-0.2 0.5-0.7 0.5h-3q-0.6 0-0.4-0.6zm9.7-14.7l-3 7.9h5.9z"/><path  d="m349 71v-19.5q0-0.5 0.5-0.5h9q1.6 0 2.8 0.7 1.3 0.8 2 2.1 0.8 1.3 0.8 2.9 0 2.5-1.6 3.9 1.2 0.7 1.9 2.1 0.7 1.3 0.7 2.9-0.1 1.6-0.8 2.9-0.8 1.4-2 2.2-1.3 0.9-2.9 0.9h-9.9q-0.5 0-0.5-0.6zm9.2-8.5h-5.1v5.7h5.2q0.9 0 1.4-0.4 0.6-0.4 0.9-1.1 0.3-0.6 0.3-1.3 0-1.2-0.8-2-0.8-0.9-1.9-0.9zm-0.8-8.2h-4.3v5h4.3q1.2 0 1.9-0.6 0.8-0.7 0.8-1.9 0-1.1-0.8-1.8-0.7-0.7-1.9-0.7z"/><path  d="m387.9 61.3q0 2.2-0.8 4.1-0.8 1.9-2.3 3.3-1.5 1.5-3.4 2.3-1.9 0.8-4.1 0.8-2.2 0-4.1-0.8-1.9-0.8-3.4-2.3-1.4-1.4-2.2-3.3-0.8-1.9-0.8-4.1 0-2.2 0.8-4.2 0.8-1.9 2.2-3.3 1.5-1.5 3.4-2.3 1.9-0.8 4.1-0.8 2.2 0 4.1 0.8 1.9 0.8 3.4 2.3 1.5 1.4 2.3 3.3 0.8 2 0.8 4.2zm-4.1 0q0-1.9-0.8-3.4-0.9-1.5-2.3-2.4-1.5-0.9-3.4-0.9-1.9 0-3.3 0.9-1.5 0.9-2.3 2.4-0.9 1.5-0.9 3.4 0 1.8 0.9 3.3 0.8 1.5 2.3 2.5 1.4 0.9 3.3 0.9 1.9 0 3.4-0.9 1.4-1 2.3-2.5 0.8-1.5 0.8-3.3z"/><path  d="m391.4 71v-19.5q0-0.2 0.2-0.4 0.1-0.1 0.4-0.1h8.8q1.9 0 3.4 0.9 1.4 1 2.3 2.6 0.8 1.5 0.8 3.2 0 1.8-1 3.3-0.9 1.6-2.5 2.5l3.8 7.5q0.1 0.2 0 0.4-0.1 0.2-0.4 0.2h-3.6q-0.4 0-0.6-0.5l-3.3-6.7h-4.2v6.6q0 0.6-0.6 0.6h-2.9q-0.6 0-0.6-0.6zm8.4-16.4h-4.3v6.2h4.3q1.5 0 2.4-0.9 1-0.9 1-2.2 0-1.3-1-2.2-0.9-0.9-2.4-0.9z"/><path  d="m408.2 71l7.8-19.5q0.3-0.5 0.7-0.5h2.3q0.5 0 0.8 0.5l7.8 19.5q0.1 0.2 0 0.4-0.1 0.2-0.4 0.2h-3q-0.5 0-0.7-0.5l-1.4-3.4h-8.5l-1.3 3.4q-0.2 0.5-0.7 0.5h-3q-0.6 0-0.4-0.6zm9.7-14.7l-3 7.9h5.9z"/><path  d="m428.2 54.1v-2.6q0-0.5 0.5-0.5h14.6q0.6 0 0.6 0.5v2.6q0 0.6-0.6 0.6h-5.3v16.3q0 0.6-0.5 0.6h-3q-0.6 0-0.6-0.6v-16.3h-5.2q-0.5 0-0.5-0.6z"/><path  d="m467 61.3q0 2.2-0.9 4.1-0.8 1.9-2.3 3.3-1.4 1.5-3.4 2.3-1.9 0.8-4.1 0.8-2.2 0-4.1-0.8-1.9-0.8-3.3-2.3-1.5-1.4-2.3-3.3-0.8-1.9-0.8-4.1 0-2.2 0.8-4.2 0.8-1.9 2.3-3.3 1.4-1.5 3.3-2.3 1.9-0.8 4.1-0.8 2.2 0 4.1 0.8 2 0.8 3.4 2.3 1.5 1.4 2.3 3.3 0.9 2 0.9 4.2zm-4.1 0q0-1.9-0.9-3.4-0.8-1.5-2.3-2.4-1.5-0.9-3.4-0.9-1.8 0-3.3 0.9-1.5 0.9-2.3 2.4-0.9 1.5-0.8 3.4-0.1 1.8 0.8 3.3 0.8 1.5 2.3 2.5 1.5 0.9 3.3 0.9 1.9 0 3.4-0.9 1.5-1 2.3-2.5 0.9-1.5 0.9-3.3zm-4.9-13.6l1.2-2.9q0.2-0.3 0.2-0.5 0-0.3-0.4-0.3h-2.1q-0.4 0-0.7 0.6l-1.2 2.8q-0.1 0.2-0.1 0.3-0.1 0.1-0.1 0.2 0 0.2 0.1 0.3 0.1 0.1 0.3 0.1h2q0.5 0 0.8-0.6z"/><path  d="m470.5 71v-19.5q0-0.2 0.1-0.4 0.1-0.1 0.4-0.1h8.8q1.9 0 3.4 0.9 1.5 1 2.3 2.6 0.8 1.5 0.8 3.2 0 1.8-1 3.3-0.9 1.6-2.5 2.5l3.8 7.5q0.1 0.2 0 0.4-0.1 0.2-0.4 0.2h-3.5q-0.5 0-0.7-0.5l-3.3-6.7h-4.2v6.6q0 0.6-0.5 0.6h-3q-0.5 0-0.5-0.6zm8.3-16.4h-4.3v6.2h4.3q1.5 0 2.4-0.9 1-0.9 1-2.2 0-1.3-1-2.2-0.9-0.9-2.4-0.9z"/><path  d="m489.1 71v-19.4q0-0.6 0.5-0.6h3q0.5 0 0.5 0.6v19.4q0 0.6-0.5 0.6h-3q-0.5 0-0.5-0.6z"/><path  d="m517.8 61.3q0 2.2-0.9 4.1-0.8 1.9-2.3 3.3-1.4 1.5-3.4 2.3-1.9 0.8-4.1 0.8-2.2 0-4.1-0.8-1.9-0.8-3.3-2.3-1.5-1.4-2.3-3.3-0.8-1.9-0.8-4.1 0-2.2 0.8-4.2 0.8-1.9 2.3-3.3 1.4-1.5 3.3-2.3 1.9-0.8 4.1-0.8 2.2 0 4.1 0.8 2 0.8 3.4 2.3 1.5 1.4 2.3 3.3 0.9 2 0.9 4.2zm-4.1 0q0-1.9-0.9-3.4-0.8-1.5-2.3-2.4-1.5-0.9-3.4-0.9-1.8 0-3.3 0.9-1.5 0.9-2.3 2.4-0.8 1.5-0.8 3.4 0 1.8 0.8 3.3 0.8 1.5 2.3 2.5 1.5 0.9 3.3 0.9 1.9 0 3.4-0.9 1.5-1 2.3-2.5 0.9-1.5 0.9-3.3z"/><path  d="m530 71v-19.5q0-0.5 0.5-0.5h6.6q2 0 3.9 0.8 1.8 0.8 3.3 2.2 1.5 1.4 2.4 3.2 0.8 1.9 0.8 4.1 0 2.1-0.8 3.9-0.7 1.8-2.2 3.2-1.4 1.4-3.2 2.3-1.9 0.8-4.1 0.9h-6.7q-0.5 0-0.5-0.6zm13.5-9.7q0-1.9-0.9-3.3-0.9-1.5-2.4-2.4-1.5-0.9-3.4-0.9h-2.8v13.1h2.8q1.9 0 3.4-0.9 1.5-0.8 2.4-2.3 0.9-1.5 0.9-3.3z"/><path  d="m550.6 71v-19.5q0-0.5 0.5-0.5h13.6q0.6 0 0.6 0.5v2.7q0 0.6-0.6 0.6h-10v4.2h7.6q0.6 0 0.6 0.5v2.7q0 0.5-0.6 0.5h-7.6v5.1h10.2q0.6 0 0.6 0.6v2.6q0 0.6-0.6 0.6h-13.8q-0.5 0-0.5-0.6z"/><path  d="m409.9 131.7v11.9q0 1.3 0.5 2.3 0.6 1.1 1.6 1.8 1 0.6 2.3 0.6 1.3 0 2.3-0.6 1-0.7 1.5-1.8 0.6-1 0.6-2.3v-11.9q0-0.2 0.1-0.4 0.2-0.2 0.5-0.2h2.7q0.3 0 0.5 0.2 0.2 0.2 0.2 0.4v11.9q0 1.7-0.6 3.3-0.7 1.5-1.8 2.7-1.2 1.1-2.7 1.8-1.6 0.6-3.3 0.6-1.8 0-3.3-0.6-1.5-0.7-2.7-1.8-1.2-1.2-1.8-2.7-0.7-1.6-0.7-3.3v-11.9q0-0.2 0.2-0.4 0.1-0.2 0.4-0.2h2.8q0.3 0 0.5 0.2 0.2 0.2 0.2 0.4z"/><path  d="m427 151.1v-19.4q0-0.6 0.5-0.6h13.3q0.5 0 0.5 0.6v2.7q0 0.5-0.5 0.5h-9.8v5.5h7.5q0.5 0 0.5 0.5v2.6q0 0.5-0.5 0.5h-7.5v7.1q0 0.6-0.5 0.6h-3q-0.5 0-0.5-0.6z"/><path  d="m444.3 151.1v-19.4q0-0.2 0.2-0.4 0.1-0.2 0.4-0.2h8.8q1.9 0 3.3 1 1.5 0.9 2.4 2.5 0.8 1.5 0.8 3.3 0 1.7-1 3.3-0.9 1.5-2.5 2.4l3.8 7.5q0.1 0.2 0 0.4-0.1 0.2-0.4 0.2h-3.6q-0.4 0-0.6-0.5l-3.3-6.6h-4.2v6.5q0 0.6-0.6 0.6h-2.9q-0.6 0-0.6-0.6zm8.4-16.4h-4.3v6.2h4.3q1.4 0 2.4-0.9 1-0.8 1-2.2 0-1.3-1-2.2-1-0.9-2.4-0.9z"/><path  d="m465.4 152q-1.3 0-2.6-0.5-1.2-0.6-2.1-1.6-0.3-0.2-0.2-0.4 0-0.2 0.2-0.3l1.6-1.9q0.3-0.3 0.5-0.3 0.1 0 0.3 0.2 0.3 0.2 0.8 0.5 0.5 0.4 1.4 0.4 0.8 0 1.4-0.5 0.5-0.6 0.5-1.4v-14.4q0-0.7 0.7-0.7h2.6q0.8 0 0.8 0.8v13.7q0 2.2-0.9 3.6-0.8 1.4-2.2 2.1-1.3 0.7-2.8 0.7z"/></svg>