<svg version="1.2" xmlns="http://www.w3.org/2000/svg" viewBox="0 0 300 130" width="300" height="130">
	<defs>
		<clipPath clipPathUnits="userSpaceOnUse" id="cp1">
			<path d="m272.28 8.97v111.91h-263.31v-111.91z"/>
		</clipPath>
		<clipPath clipPathUnits="userSpaceOnUse" id="cp2">
			<path d="m283.58 9.3v111.87h-263.31v-111.87z"/>
		</clipPath>
		<clipPath clipPathUnits="userSpaceOnUse" id="cp3">
			<path d="m283.69 8.83v112.34h-265.06v-112.34z"/>
		</clipPath>
		<clipPath clipPathUnits="userSpaceOnUse" id="cp4">
			<path d="m283.58 9.3v111.58h-263.31v-111.58z"/>
		</clipPath>
	</defs>
	<style>
		.s0 { fill: #ffffff } 
		.s1 { fill: #accbf5 } 
		.s2 { fill: #004aad } 
	</style>
	<path fill-rule="evenodd" class="s0" d="m-158-267.7h600v600h-600z"/>
	<path fill-rule="evenodd" class="s0" d="m0-194.7h600v600h-600z"/>
	<g id="Clip-Path" clip-path="url(#cp1)">
		<g>
			<path class="s1" d="m272.1 71.7q0 0-0.8 0.1-0.8 0.2-2.5 0.4c-1.1 0.1-2.4 0.2-4 0.2-1.7 0.1-3.5 0-5.6-0.3-0.5-0.1-1.1-0.2-1.6-0.3q-0.2 0-0.4-0.1l-0.5-0.1q-0.4-0.1-0.8-0.2-1.7-0.4-3.5-1-1.9-0.7-3.7-1.6-1.9-1-3.9-2.3-1-0.6-2-1.2c-0.7-0.4-1.4-0.9-2.2-1.3q-1.2-0.6-2.7-0.9c-0.3 0-0.5-0.1-0.8-0.1q-0.2 0-0.4 0h-0.4q-0.1 0-0.2 0h-0.2q-0.2 0.1-0.4 0.1l-0.4 0.1h-0.1c-0.2 0.1-0.2 0.1-0.3 0.1q-0.7 0.2-1.5 0.6-0.7 0.4-1.3 0.9-0.6 0.6-1.1 1.2-0.5 0.6-0.9 1.2c-1.1 1.8-1.9 3.7-2.6 5.7-0.6 1.9-1.2 4-1.6 6.1-0.5 2-0.9 4.2-1.4 6.3q-0.1 0.8-0.4 1.5 0 0.3-0.1 0.5-0.1-0.3-0.2-0.7-0.3-0.8-0.5-1.6-0.4-1.7-0.8-3.4c-0.9-4.7-1.7-9.6-2.5-14.8q-0.6-3.9-1.4-7.9-0.3-2.1-0.8-4.1-0.3-1.1-0.6-2.2c-0.2-0.7-0.5-1.4-0.8-2.2-0.2-0.4-0.5-0.9-0.9-1.4-0.2-0.3-0.5-0.6-1.1-0.9-0.1-0.1-1-0.3-1.1-0.3-0.4 0-0.8 0.1-1.2 0.2q-0.5 0.2-0.8 0.4-0.3 0.3-0.5 0.5c-0.3 0.3-0.4 0.5-0.6 0.8q-0.45 0.6-0.6 1.2c-0.4 0.8-0.6 1.6-0.8 2.3q-0.3 1.1-0.6 2.2c-0.7 2.9-1.2 5.8-1.7 8.8-0.5 2.9-1 5.9-1.5 8.9q-0.3 1.3-0.5 2.6c-0.5-3-0.8-6-1.2-9.1q-0.5-4.9-1-10-0.3-2.5-0.7-5.1c-0.2-1.7-0.4-3.4-0.8-5.3q-0.2-0.7-0.4-1.4c-0.1-0.5-0.3-1-0.5-1.6-0.1-0.3-0.3-0.7-0.6-1.1-0.2-0.3-0.4-0.6-0.8-0.9-0.1-0.3-1.8-0.9-2.3-0.8-1.1 0-1.8 0.5-2.2 0.8-0.4 0.4-0.6 0.6-0.8 0.9-0.3 0.4-0.5 0.8-0.6 1.1-0.3 0.6-0.4 1.1-0.6 1.6q-0.2 0.7-0.4 1.4-0.3 1.4-0.5 2.8-0.5 2.7-0.9 5.3-0.3 2.7-0.6 5.4c-0.9 7.1-1.6 14.4-2.4 21.8q-0.5 5.2-1.2 10.5-0.2-1.8-0.4-3.7c-0.9-7.7-1.6-15.7-2.3-23.7-0.8-8.1-1.4-16.2-2.3-24.5-0.4-4.2-0.8-8.3-1.3-12.5q-0.4-3.2-0.9-6.4-0.2-1.6-0.6-3.3-0.1-0.8-0.4-1.7-0.1-0.5-0.3-1 0-0.2-0.1-0.5-0.1-0.3-0.3-0.6-0.1-0.4-0.4-0.8c-0.2-0.4-0.4-0.7-1.1-1.3-1.1-0.9-2.9-1.4-4.5-0.7-1.4 0.7-1.7 1.3-2 1.7-0.2 0.4-0.4 0.7-0.5 0.9q-0.1 0.4-0.2 0.7c-0.2 0.4-0.3 0.8-0.4 1.1-0.1 0.6-0.3 1.2-0.4 1.8q-0.1 0.9-0.3 1.7c-0.3 2.2-0.5 4.4-0.8 6.6-0.4 4.3-0.7 8.6-1 12.9-0.7 8.6-1.2 17.2-2 25.8q-0.1 1.8-0.3 3.6-0.5-2.5-1-5c-0.4-2.2-0.9-4.4-1.5-6.8q-0.2-0.8-0.5-1.8c-0.2-0.6-0.5-1.2-0.8-2q-0.2-0.3-0.4-0.6c-0.1-0.2-0.3-0.5-0.5-0.8-0.2-0.3-0.5-0.6-1.1-1-0.1-0.3-2-0.9-2.4-0.8-1.6 0-2.2 0.5-2.8 1-0.5 0.4-0.8 0.8-1 1q-0.3 0.5-0.5 0.8-0.2 0.4-0.3 0.7-0.2 0.6-0.4 1.1-0.1 0.5-0.2 1-0.3 0.9-0.4 1.8-0.4 1.8-0.6 3.6c-0.3 2.3-0.5 4.5-0.8 6.8q-0.6 6.75-1.2 13.5-0.1 1-0.2 2.1c-0.7-3.9-1.3-7.8-2-11.7-0.7-4.5-1.4-9-2.3-13.5q-0.6-3.4-1.4-6.9-0.4-1.7-0.9-3.5-0.3-0.9-0.6-1.9-0.2-0.5-0.5-1c-0.1-0.4-0.3-0.7-0.7-1.2q-0.2-0.3-0.6-0.8c-0.3-0.3-0.7-0.6-1.5-0.9-1.1-0.4-1.5-0.3-2.7 0-0.8 0.3-1.2 0.7-1.5 1-0.3 0.3-0.5 0.6-0.7 0.9q-0.2 0.3-0.3 0.6-0.3 0.6-0.5 1.2-0.3 1-0.5 1.9-0.3 0.9-0.4 1.8c-0.5 2.4-0.8 4.7-1.1 7-0.5 4.7-0.9 9.3-1.4 13.8-0.4 4.6-0.8 9.2-1.3 13.7q-0.1 1.7-0.3 3.4-0.3-1.4-0.5-2.8c-0.8-4.5-1.4-9-2.1-13.6-0.4-2.2-0.7-4.5-1.2-6.8q-0.3-1.8-0.8-3.6-0.2-0.9-0.6-1.9c-0.1-0.3-0.2-0.7-0.5-1.1q-0.1-0.3-0.4-0.7c-0.2-0.3-0.4-0.6-1.1-1.1-0.6-0.4-2.3-0.7-3.1-0.1-0.9 0.4-1.2 0.8-1.4 1.1-0.3 0.4-0.4 0.6-0.5 0.8q-0.2 0.4-0.3 0.7-0.2 0.5-0.3 1-0.1 0.5-0.3 1-0.3 1.8-0.6 3.6c-0.3 2.3-0.6 4.6-0.8 6.9-0.4 4.6-0.7 9.2-1 13.7q-0.4 6.8-0.9 13.6-0.1 1.5-0.1 3-0.2-1.1-0.3-2.2c-0.8-8.9-1.5-17.8-2.3-26.6q-0.5-6.7-1.2-13.3c-0.4-4.3-0.9-8.7-1.5-13.1-0.3-2.2-0.6-4.4-1.1-6.6-0.2-1.1-0.4-2.2-0.8-3.4q-0.1-0.4-0.3-0.9-0.2-0.5-0.5-1.1c-0.1-0.2-0.2-0.4-0.4-0.6-0.2-0.2-0.5-0.6-1.1-0.9-1-0.4-1.1-0.3-2.3-0.1-0.6 0.3-0.9 0.6-1.2 0.9q-0.3 0.3-0.5 0.6-0.1 0.3-0.2 0.6-0.3 0.5-0.4 1c-0.2 0.6-0.4 1.1-0.5 1.7q-0.4 1.7-0.7 3.3c-0.4 2.2-0.7 4.4-1 6.5-0.6 4.3-1 8.6-1.5 12.8-0.5 4.3-1 8.5-1.6 12.6q-0.3 2.7-0.9 5.4-0.2-1-0.4-2.1-0.5-3-0.8-6.1c-0.5-4-1-8.1-1.3-12.2q-0.6-6.1-1.2-12.1-0.5-6.1-1.1-12.1c-0.3-3.9-0.7-7.9-1.3-11.9-0.2-1.9-0.5-3.9-0.9-5.9q-0.1-0.7-0.3-1.5c-0.1-0.5-0.3-1-0.5-1.6-0.1-0.3-0.2-0.6-0.4-0.9-0.1-0.2-0.2-0.4-0.5-0.7-0.1-0.2-1.1-0.8-1.7-0.7-0.9 0.1-1.2 0.6-1.4 0.8-0.3 0.3-0.4 0.4-0.5 0.6-0.2 0.4-0.3 0.7-0.4 1-0.2 0.5-0.3 1-0.4 1.5q-0.2 0.8-0.4 1.5-0.2 1.5-0.4 3-0.4 2.9-0.7 5.8-0.6 5.7-1.1 11.4-0.4 5.6-0.9 11.2c-0.5 7.4-1.1 14.6-1.7 21.8q-0.4 5.3-0.9 10.5c-0.4 3.5-0.8 6.9-1.3 10.3q-0.3 2.6-0.8 5-0.2 1.2-0.5 2.4c-0.2 0.8-0.5 1.6-0.7 2.3q-0.1 0.1-0.2 0.3-0.3-0.4-0.5-0.9-0.4-1.1-0.7-2.3-0.4-1.1-0.7-2.3c-0.7-3.1-1.3-6.3-1.9-9.5q-0.9-4.7-1.6-9.4c-1.1-6.2-2-12.2-3.2-18-0.6-3-1.2-5.9-2-8.7q-0.3-1.1-0.6-2.1-0.4-1.1-0.9-2.1-0.2-0.5-0.6-1.1-0.2-0.2-0.5-0.5c-0.2-0.2-0.5-0.4-0.8-0.5-0.2-0.1-0.5-0.1-0.5-0.1-0.3 0-0.5 0-0.7 0.1-0.3 0.1-0.6 0.3-0.8 0.5q-0.3 0.3-0.4 0.6-0.2 0.3-0.4 0.5c-0.3 0.8-0.6 1.5-0.8 2.1q-0.3 1.1-0.5 2.1-0.5 2.1-0.9 4.1c-0.4 2.7-0.8 5.3-1.2 7.9-0.7 5.2-1.4 10.1-2.3 14.9-0.4 2.3-0.9 4.6-1.6 6.8-0.3 1.1-0.7 2.1-1.2 3.1-0.2 0.4-0.5 0.9-0.8 1.2q-0.2 0.2-0.4 0.2-0.1 0.1-0.1 0.1c0 0-0.1 0-0.2 0 0.1 0 0 0 0 0q-0.1 0-0.1 0c-0.1 0-0.2-0.1-0.2-0.1q-0.2-0.1-0.3-0.2c-0.1-0.1-0.3-0.2-0.5-0.4q-0.4-0.6-0.8-1.2c-0.5-0.9-0.9-1.9-1.3-2.9-0.8-1.9-1.4-3.8-2-5.8-1.2-3.8-2.3-7.4-3.6-10.8-0.6-1.7-1.2-3.3-1.9-4.9-0.8-1.5-1.6-3-2.6-4.2q-0.4-0.5-0.9-0.9-0.4-0.4-1-0.8c-0.2-0.1-0.4-0.1-0.5-0.2q-0.2-0.1-0.3-0.1l-0.2-0.1h-0.2q-0.1-0.1-0.3-0.1h-0.3-0.1-0.2-0.3c-0.8 0.1-1.6 0.4-2.2 0.8-0.6 0.5-1.1 1-1.6 1.5-0.9 1-1.6 2.1-2.2 3.1q-1 1.6-1.7 3.1-0.7 1.5-1.2 2.8-0.5 1.3-1 2.5-0.8 2.3-1.4 3.9-0.5 1.6-0.8 2.4-0.2 0.8-0.2 0.8l0.7 0.2q0 0 0.3-0.8 0.2-0.8 0.8-2.4 0.5-1.5 1.4-3.8 0.5-1.2 1-2.5 0.6-1.3 1.3-2.7 0.7-1.5 1.6-3 0.9-1.5 2.1-3 0.7-0.7 1.5-1.2c0.5-0.4 1.1-0.6 1.7-0.7h0.2 0.1c0.1 0 0.1 0 0.1 0l0.3 0.1q0.1 0 0.2 0h0.1l0.1 0.1q0.1 0 0.2 0c0.2 0.1 0.3 0.2 0.5 0.3 0.3 0.1 0.5 0.4 0.8 0.6q0.4 0.4 0.7 0.8c1 1.1 1.7 2.5 2.4 4q1 2.3 1.9 4.8c1.2 3.4 2.2 7 3.4 10.9 0.6 1.9 1.2 3.9 2 5.9 0.4 1 0.8 2 1.3 3q0.4 0.7 1 1.4 0.3 0.4 0.7 0.7 0.2 0.2 0.5 0.3c0.2 0.1 0.3 0.2 0.5 0.2q0.2 0.1 0.4 0.1c0.1 0 0.1 0 0.3 0 0.1 0 0.1 0 0.3-0.1q0.2 0 0.3 0 0.6-0.3 0.9-0.6c0.6-0.5 0.9-1.1 1.2-1.6 0.6-1.1 1-2.2 1.3-3.3 0.7-2.3 1.3-4.6 1.7-7 1-4.8 1.7-9.8 2.5-14.9 0.4-2.6 0.8-5.2 1.3-7.9q0.4-2 0.8-3.9 0.3-1 0.6-2c0.2-0.6 0.4-1.2 0.7-1.7q0.1-0.2 0.2-0.4 0.1-0.2 0.2-0.2 0.1 0.1 0.3 0.2 0.2 0.4 0.4 0.8 0.4 0.9 0.7 1.9 0.4 0.9 0.6 2c0.8 2.7 1.3 5.6 1.9 8.5 1.1 5.8 2 11.8 3 18q0.7 4.7 1.5 9.4c0.5 3.2 1.1 6.4 1.9 9.7q0.3 1.2 0.6 2.4 0.3 1.3 0.8 2.5 0.3 0.7 0.6 1.3 0.2 0.4 0.5 0.7c0.2 0.3 0.4 0.5 0.8 0.8 0.3 0.1 0.5 0.2 0.9 0.2 0.6 0 0.2 0.1 0.8-0.1 0.4-0.1 0.5-0.3 0.7-0.4q0.2-0.2 0.4-0.4c0.4-0.5 0.6-1 0.8-1.4 0.4-0.9 0.6-1.7 0.8-2.6q0.4-1.3 0.7-2.5 0.5-2.6 0.9-5.2c0.5-3.4 0.9-6.9 1.3-10.4q0.6-5.2 1.1-10.6c0.7-7.1 1.3-14.4 1.9-21.8q0.5-5.5 1-11.2 0.5-5.6 1.1-11.3 0.4-2.8 0.8-5.6 0.1-0.9 0.2-1.7 0.4 2.3 0.7 4.6c0.4 3.9 0.8 7.8 1.1 11.8q0.5 5.9 1 12 0.5 6.1 1 12.2c0.4 4.1 0.8 8.2 1.3 12.3q0.3 3.1 0.8 6.3 0.3 1.6 0.6 3.2 0.2 0.8 0.4 1.6c0.1 0.6 0.3 1.1 0.6 1.8 0.1 0.3 0.3 0.6 0.6 1.1 0.2 0.2 0.4 0.4 0.8 0.7 0.3 0.3 1.4 0.6 1.7 0.4 1.1-0.2 1.3-0.5 1.6-0.7q0.4-0.4 0.5-0.7c0.3-0.4 0.4-0.7 0.6-1q0.3-0.9 0.6-1.8 0.2-0.8 0.4-1.6c0.5-2.1 0.8-4.2 1.1-6.4 0.7-4.2 1.2-8.4 1.7-12.7 0.5-4.2 1-8.4 1.6-12.7q0.5-3.1 1-6.2 0.1-0.2 0.1-0.4 0.5 2.8 0.9 5.6c0.5 4.3 0.9 8.6 1.3 13q0.6 6.6 1.1 13.2c0.7 8.8 1.4 17.7 2.1 26.6q0.3 3.4 0.6 6.7 0.4 3.4 0.8 6.8 0.2 1.7 0.6 3.5c0.1 0.6 0.2 1.2 0.4 1.9q0.1 0.3 0.2 0.6 0.1 0.3 0.3 0.7c0.2 0.3 0.3 0.6 1.3 1.3 1.2 1.2 3.5-0.2 3.7-0.7 0.4-0.5 0.5-0.7 0.6-1q0.1-0.4 0.2-0.6 0.2-0.6 0.3-1.1 0.2-0.9 0.3-1.8 0.3-1.8 0.5-3.5 0.4-3.4 0.6-6.8 0.3-3.4 0.5-6.8 0.5-6.8 1-13.6c0.3-4.5 0.7-9.1 1.1-13.5q0.1-1 0.2-1.8 0.2 1.1 0.4 2.3c0.6 4.5 1.2 9.1 2 13.6 0.3 2.3 0.7 4.6 1.2 7q0.3 1.65 0.9 3.6 0.1 0.4 0.3 0.9 0.2 0.5 0.5 1.1 0.1 0.3 0.3 0.7c0.2 0.2 0.4 0.5 0.7 0.8 0.3 0.3 0.8 0.8 1.8 1 0.8 0.3 2 0 2.7-0.5 0.6-0.4 0.9-0.7 1.1-1 0.2-0.3 0.3-0.5 0.5-0.8 0.2-0.4 0.3-0.8 0.5-1.1 0.2-0.7 0.4-1.4 0.5-2 0.3-1.2 0.6-2.4 0.8-3.6q0.45-3.45 0.9-6.9c0.5-4.7 1-9.2 1.4-13.8 0.5-4.6 0.9-9.1 1.5-13.6q0.1-1.2 0.3-2.5 0.5 2.3 0.9 4.6 1.05 6.75 2.1 13.5c0.7 4.5 1.4 9 2.2 13.6q0.3 1.7 0.7 3.4 0.4 1.7 0.8 3.5 0.3 0.9 0.6 1.8 0.1 0.5 0.3 1 0.2 0.5 0.5 1.1 0.2 0.3 0.4 0.7c0.2 0.2 0.4 0.5 0.7 0.9 0.4 0.3 0.9 0.7 1.9 1.1 1 0.3 2.2 0.1 3.1-0.4 0.7-0.5 1.1-0.9 1.3-1.2q0.4-0.5 0.6-0.9c0.2-0.5 0.4-0.9 0.5-1.2 0.3-0.8 0.4-1.4 0.6-2q0.2-1 0.4-1.9 0.3-1.7 0.5-3.5 0.5-3.4 0.8-6.8c0.5-4.6 0.9-9 1.4-13.5q0-0.2 0-0.4 0.3 1.8 0.7 3.7c0.4 2.2 0.8 4.4 1.3 6.7 0.2 1.1 0.5 2.2 0.8 3.4 0.2 0.6 0.4 1.3 0.7 1.9q0.2 0.5 0.5 1.2 0.2 0.3 0.4 0.7c0.2 0.2 0.4 0.5 0.8 0.9 0.4 0.4 0.9 0.9 2 1.2 1.4 0.2 1.9 0.2 3.2-0.4 0.9-0.4 1.2-0.9 1.5-1.2q0.4-0.5 0.6-0.9c0.3-0.5 0.5-0.9 0.6-1.3q0.2-0.5 0.4-1 0.3-1 0.5-1.9 0.2-0.9 0.3-1.8c0.5-2.3 0.8-4.5 1-6.7q0.4-3.3 0.7-6.6 0.6-6.6 1.1-13.1 0.4-5.8 0.9-11.5 0 0.1 0 0.2c0.8 8.2 1.6 16.3 2.4 24.4 0.8 8 1.6 16 2.5 23.9 0.5 4 1 7.9 1.8 11.8q0.2 1.5 0.6 3.1 0.2 0.7 0.4 1.5c0.1 0.6 0.3 1.1 0.5 1.7q0.1 0.2 0.2 0.5 0.1 0.2 0.3 0.5c0.1 0.2 0.2 0.4 0.3 0.7 0.2 0.2 0.4 0.5 0.7 0.8 0.3 0.3 0.8 0.8 1.8 1.1 1.4 0.3 1.8 0.4 3.1-0.3 0.8-0.4 1.1-0.8 1.4-1.1q0.3-0.4 0.5-0.8c0.2-0.4 0.4-0.8 0.5-1.1q0.2-0.5 0.3-0.9 0.3-0.9 0.5-1.6 0.3-1.6 0.6-3.1 0.2-1.4 0.4-2.9 0.4-2.9 0.8-5.7c0.4-3.8 0.7-7.5 1.1-11.3 0.7-7.4 1.3-14.6 2-21.7q0.2-1.7 0.4-3.3 0 0.1 0 0.2 0.6 5.1 1.3 9.9c0.4 3.3 0.8 6.6 1.4 9.8q0.2 1.3 0.5 2.5c0.2 0.8 0.4 1.6 0.6 2.5q0.2 0.7 0.5 1.4 0.2 0.4 0.4 0.8c0.1 0.3 0.3 0.6 0.6 1q0.3 0.3 0.8 0.6c0.3 0.3 0.8 0.5 1.4 0.6 0.8 0.1 1.1-0.1 1.8-0.3 0.5-0.2 0.7-0.5 1-0.7 0.4-0.4 0.6-0.7 0.7-1q0.3-0.5 0.4-0.8 0.3-0.7 0.5-1.4 0.2-0.6 0.4-1.2 0.3-1.3 0.5-2.4 0.5-2.4 0.8-4.7c0.5-3 0.9-6 1.4-8.9 0.4-3 0.8-5.8 1.4-8.6q0.2-0.9 0.4-1.8 0.2 0.6 0.4 1.2 0.5 2 0.9 3.9 0.9 3.9 1.5 7.8c1 5.1 1.9 10.1 3 14.9q0.4 1.8 0.9 3.5 0.3 0.9 0.6 1.8c0.2 0.6 0.5 1.2 0.8 1.9 0.2 0.3 0.4 0.6 0.7 1q0.2 0.2 0.6 0.5c0.3 0.2 0.7 0.4 1.2 0.5 0.3 0 0.8 0 0.6 0 0.1 0 0.7-0.2 0.8-0.3q0.3-0.1 0.5-0.3 0.15-0.15 0.3-0.3c0.3-0.5 0.5-0.8 0.6-1.2q0.45-0.9 0.6-1.8 0.3-0.9 0.4-1.7c0.5-2.3 0.8-4.4 1.2-6.4 0.4-2.1 0.8-4.1 1.3-5.9 0.6-1.9 1.2-3.6 2.1-5.1q0.7-1.1 1.6-1.9 0.4-0.4 0.9-0.7 0.4-0.3 0.9-0.5c0.1 0 0.2 0 0.1 0l0.2-0.1 0.3-0.1h0.2 0.1q0.1 0 0.2 0h0.2q0.2 0 0.3 0 0.3 0 0.5 0c0.7 0.1 1.4 0.4 2.1 0.7q1.1 0.5 2.2 1.1 1 0.6 2 1.2 2.1 1.1 4.1 2.1 2 0.9 3.9 1.5 2 0.6 3.8 1 0.4 0.1 0.9 0.2h0.2 0.2q0.2 0.1 0.4 0.1c0.6 0.1 1.2 0.1 1.7 0.2 2.2 0.2 4.1 0.2 5.8 0.1 1.7-0.1 3.1-0.2 4.2-0.4q1.6-0.3 2.5-0.5 0.8-0.2 0.8-0.2zm-60.2-19.7zm-9.3 29.8c0 0 0 0 0-0.1q0 0 0 0.1zm-8.6-36.2q-0.1-0.1 0 0zm-10.6 59.6q-0.1 0 0 0zm-13.7-87.9zm-20.6 76q0 0 0 0.1 0 0 0-0.1zm-22 1.5zm-9-35.4q0-0.1 0 0zm105.1 29.2z"/>
		</g>
	</g>
	<g id="Clip-Path" clip-path="url(#cp2)">
		<g>
			<g id="Clip-Path" clip-path="url(#cp3)">
				<g>
					<g id="Clip-Path" clip-path="url(#cp4)">
						<g>
							<path class="s2" d="m283.4 71.7q0 0-0.8 0.1-0.8 0.2-2.5 0.4c-1.1 0.1-2.4 0.2-4 0.2-1.7 0.1-3.5 0-5.6-0.3-0.5-0.1-1.1-0.2-1.6-0.3q-0.2 0-0.4-0.1h-0.2l-0.3-0.1q-0.4-0.1-0.8-0.2-1.7-0.4-3.5-1-1.9-0.7-3.7-1.6-1.9-1-3.9-2.3-1-0.6-2-1.2c-0.7-0.4-1.4-0.9-2.2-1.3q-1.2-0.6-2.7-0.9c-0.3 0-0.5-0.1-0.8-0.1q-0.2 0-0.4 0h-0.4q-0.1 0-0.2 0h-0.2q-0.2 0.1-0.4 0.1l-0.4 0.1h-0.1c-0.2 0.1-0.2 0.1-0.3 0.1q-0.7 0.2-1.5 0.6-0.7 0.4-1.3 0.9-0.6 0.6-1.1 1.2-0.5 0.6-0.9 1.2c-1.1 1.8-1.9 3.7-2.6 5.7-0.6 1.9-1.1 4-1.6 6.1-0.5 2-0.9 4.2-1.4 6.3q-0.2 0.8-0.4 1.5 0 0.3-0.1 0.5-0.1-0.3-0.2-0.7-0.3-0.8-0.5-1.6-0.4-1.7-0.8-3.4c-0.9-4.7-1.7-9.6-2.5-14.8q-0.6-3.9-1.4-7.9-0.3-2.1-0.8-4.1-0.3-1.1-0.6-2.2c-0.2-0.7-0.5-1.4-0.8-2.2-0.3-0.4-0.5-0.9-0.9-1.4-0.2-0.3-0.5-0.6-1.1-0.9-0.1-0.1-1-0.3-1.1-0.3-0.4 0-0.8 0.1-1.2 0.2q-0.5 0.2-0.8 0.4-0.3 0.3-0.5 0.5-0.4 0.4-0.6 0.8-0.45 0.6-0.6 1.2c-0.4 0.8-0.6 1.6-0.8 2.3q-0.3 1.1-0.6 2.2c-0.7 2.9-1.2 5.8-1.7 8.8-0.5 2.9-1 5.9-1.5 8.9q-0.3 1.3-0.5 2.6c-0.5-3-0.8-6-1.2-9.1q-0.5-4.9-1-10-0.3-2.5-0.7-5.1c-0.2-1.7-0.5-3.4-0.8-5.3q-0.2-0.7-0.4-1.4c-0.1-0.5-0.3-1-0.5-1.6-0.1-0.3-0.3-0.7-0.6-1.1-0.2-0.3-0.4-0.6-0.8-0.9-0.1-0.3-1.8-0.9-2.3-0.8-1.1 0-1.8 0.5-2.2 0.8-0.5 0.4-0.6 0.6-0.8 0.9-0.3 0.4-0.5 0.8-0.6 1.1-0.3 0.6-0.4 1.1-0.6 1.6q-0.2 0.7-0.4 1.4-0.3 1.4-0.5 2.8-0.5 2.7-0.9 5.3-0.3 2.7-0.6 5.4c-0.9 7.1-1.6 14.4-2.4 21.8q-0.6 5.2-1.2 10.5-0.2-1.8-0.4-3.7c-0.9-7.7-1.6-15.7-2.3-23.7-0.8-8.1-1.5-16.2-2.3-24.5-0.4-4.2-0.8-8.3-1.3-12.5q-0.4-3.2-0.9-6.4-0.2-1.6-0.6-3.3-0.1-0.8-0.4-1.7-0.1-0.5-0.3-1 0-0.2-0.1-0.5-0.2-0.3-0.3-0.6-0.1-0.4-0.4-0.8c-0.2-0.4-0.4-0.7-1.1-1.3-1.1-0.9-2.9-1.4-4.5-0.7-1.4 0.7-1.7 1.3-2 1.7-0.2 0.4-0.4 0.7-0.5 0.9q-0.1 0.4-0.2 0.7c-0.2 0.4-0.3 0.8-0.4 1.1-0.1 0.6-0.3 1.2-0.4 1.8q-0.1 0.9-0.3 1.7c-0.3 2.2-0.5 4.4-0.8 6.6-0.4 4.3-0.7 8.6-1 12.9-0.7 8.6-1.2 17.2-2 25.8q-0.2 1.8-0.3 3.6-0.5-2.5-1-5c-0.4-2.2-0.9-4.4-1.5-6.8q-0.2-0.8-0.5-1.8c-0.2-0.6-0.5-1.2-0.8-2q-0.2-0.3-0.4-0.6c-0.1-0.2-0.3-0.5-0.5-0.8-0.2-0.3-0.5-0.6-1-1-0.2-0.3-2.1-0.9-2.5-0.8-1.6 0-2.2 0.5-2.8 1-0.5 0.4-0.8 0.8-1 1q-0.3 0.5-0.5 0.8-0.2 0.4-0.3 0.7-0.2 0.6-0.4 1.1-0.1 0.5-0.3 1-0.2 0.9-0.3 1.8-0.4 1.8-0.6 3.6-0.5 3.4-0.8 6.8-0.6 6.75-1.2 13.5-0.1 1-0.2 2.1c-0.7-3.9-1.3-7.8-2-11.7-0.7-4.5-1.4-9-2.3-13.5-0.4-2.3-0.9-4.6-1.4-6.9-0.3-1.2-0.6-2.3-0.9-3.5q-0.3-0.9-0.6-1.9-0.2-0.5-0.5-1c-0.2-0.4-0.3-0.7-0.7-1.2q-0.2-0.3-0.6-0.8c-0.3-0.3-0.7-0.6-1.5-0.9-1.1-0.4-1.5-0.3-2.7 0-0.8 0.3-1.2 0.7-1.5 1-0.3 0.3-0.5 0.6-0.7 0.9q-0.2 0.3-0.3 0.6-0.3 0.6-0.5 1.2c-0.2 0.6-0.4 1.3-0.5 1.9q-0.3 0.9-0.4 1.8c-0.5 2.4-0.8 4.7-1.1 7-0.5 4.7-0.9 9.3-1.4 13.8-0.4 4.6-0.8 9.2-1.3 13.7q-0.1 1.7-0.4 3.4-0.2-1.4-0.4-2.8c-0.8-4.5-1.4-9-2.1-13.6q-0.5-3.4-1.2-6.8c-0.2-1.2-0.5-2.4-0.8-3.6-0.2-0.6-0.3-1.2-0.6-1.9-0.1-0.3-0.2-0.7-0.5-1.1q-0.1-0.3-0.4-0.7c-0.2-0.3-0.4-0.6-1.1-1.1-0.6-0.4-2.3-0.7-3.1-0.1-0.9 0.4-1.2 0.8-1.4 1.1-0.3 0.4-0.4 0.6-0.5 0.8q-0.2 0.4-0.3 0.7-0.2 0.5-0.3 1-0.2 0.5-0.3 1-0.3 1.8-0.6 3.6c-0.3 2.3-0.6 4.6-0.8 6.9-0.4 4.6-0.7 9.2-1 13.7q-0.4 6.8-0.9 13.6-0.1 1.5-0.2 3-0.1-1.1-0.2-2.2c-0.8-8.9-1.5-17.8-2.3-26.6q-0.5-6.7-1.2-13.3c-0.4-4.3-0.9-8.7-1.5-13.1-0.3-2.2-0.6-4.4-1.1-6.6-0.2-1.1-0.4-2.2-0.8-3.4q-0.1-0.4-0.3-0.9-0.2-0.5-0.5-1.1c-0.1-0.2-0.2-0.4-0.4-0.6-0.2-0.2-0.5-0.6-1.1-0.9-1-0.4-1.1-0.3-2.3-0.1-0.6 0.3-0.9 0.6-1.2 0.9q-0.3 0.3-0.5 0.6-0.1 0.3-0.2 0.6-0.3 0.5-0.4 1-0.3 0.9-0.5 1.7-0.4 1.7-0.7 3.3-0.6 3.3-1 6.5c-0.6 4.3-1 8.6-1.5 12.8-0.5 4.3-1 8.5-1.6 12.6q-0.4 2.8-0.9 5.4-0.2-1-0.4-2.1-0.5-3-0.8-6.1c-0.5-4-1-8.1-1.4-12.2q-0.5-6.1-1.1-12.1-0.5-6.1-1.1-12.1c-0.3-3.9-0.7-7.9-1.2-11.9-0.3-1.9-0.6-3.9-1-5.9q-0.1-0.7-0.3-1.5c-0.1-0.5-0.3-1-0.5-1.6-0.1-0.3-0.2-0.6-0.4-0.9-0.1-0.2-0.2-0.4-0.5-0.7-0.1-0.2-1.1-0.8-1.7-0.7-0.9 0.1-1.2 0.6-1.5 0.8-0.2 0.3-0.3 0.4-0.4 0.6-0.2 0.4-0.3 0.7-0.4 1q-0.3 0.8-0.4 1.5-0.2 0.8-0.4 1.5-0.2 1.5-0.4 3-0.4 2.9-0.7 5.8-0.6 5.7-1.1 11.4-0.4 5.6-0.9 11.2c-0.5 7.4-1.1 14.6-1.7 21.8q-0.4 5.3-0.9 10.5-0.6 5.2-1.3 10.3-0.3 2.6-0.8 5-0.2 1.2-0.5 2.4c-0.2 0.8-0.5 1.6-0.7 2.3q-0.1 0.1-0.2 0.3-0.3-0.4-0.5-0.9-0.4-1.1-0.7-2.3-0.4-1.1-0.7-2.3c-0.7-3.1-1.3-6.3-1.9-9.5q-0.8-4.7-1.6-9.4c-1.1-6.2-2-12.2-3.2-18-0.6-3-1.2-5.9-2-8.7q-0.3-1.1-0.6-2.1-0.4-1.1-0.9-2.1-0.2-0.5-0.6-1.1-0.2-0.2-0.5-0.5c-0.2-0.2-0.5-0.4-0.8-0.5-0.2-0.1-0.5-0.1-0.5-0.1-0.3 0-0.5 0-0.7 0.1-0.3 0.1-0.6 0.3-0.8 0.5q-0.3 0.3-0.4 0.6-0.2 0.3-0.4 0.5c-0.3 0.8-0.6 1.5-0.8 2.1q-0.3 1.1-0.5 2.1-0.5 2.1-0.9 4.1c-0.4 2.7-0.8 5.3-1.2 7.9-0.7 5.2-1.4 10.1-2.3 14.9-0.4 2.3-0.9 4.6-1.6 6.8-0.3 1.1-0.7 2.1-1.2 3.1-0.2 0.4-0.5 0.9-0.8 1.2q-0.2 0.2-0.4 0.2c-0.1 0.1-0.1 0.1-0.1 0.1 0 0-0.1 0-0.2 0 0.1 0 0 0 0 0q-0.1 0-0.1 0c-0.1 0-0.2-0.1-0.2-0.1q-0.2-0.1-0.3-0.2-0.2-0.1-0.5-0.4-0.4-0.6-0.8-1.2c-0.5-0.9-0.9-1.9-1.3-2.9-0.8-1.9-1.4-3.8-2-5.8-1.2-3.8-2.3-7.4-3.6-10.8q-0.9-2.6-1.9-4.9c-0.8-1.5-1.6-3-2.6-4.2q-0.4-0.5-0.9-0.9-0.4-0.4-1-0.8c-0.2-0.1-0.4-0.1-0.5-0.2q-0.2-0.1-0.3-0.1l-0.2-0.1h-0.2q-0.1-0.1-0.3-0.1h-0.3-0.1-0.2-0.3c-0.8 0.1-1.6 0.4-2.2 0.8-0.6 0.5-1.1 1-1.6 1.5-0.9 1-1.6 2.1-2.2 3.1q-1 1.6-1.7 3.1-0.7 1.5-1.2 2.8-0.5 1.3-1 2.5-0.9 2.3-1.4 3.9-0.5 1.6-0.8 2.4-0.2 0.8-0.2 0.8l0.7 0.2q0 0 0.3-0.8 0.2-0.8 0.8-2.4 0.5-1.5 1.4-3.8 0.4-1.2 1-2.5 0.6-1.3 1.3-2.7 0.7-1.5 1.6-3 0.9-1.5 2.1-3 0.7-0.7 1.5-1.2c0.5-0.4 1.1-0.6 1.7-0.7h0.2 0.1c0.1 0 0.1 0 0.1 0l0.3 0.1q0.1 0 0.2 0h0.1l0.1 0.1q0.1 0 0.2 0c0.2 0.1 0.3 0.2 0.5 0.3 0.3 0.1 0.5 0.4 0.8 0.6q0.4 0.4 0.7 0.8c1 1.1 1.7 2.5 2.4 4q1 2.3 1.9 4.8c1.2 3.4 2.2 7 3.4 10.9 0.6 1.9 1.2 3.9 2 5.9 0.4 1 0.8 2 1.3 3 0.3 0.5 0.6 1 1 1.4 0.2 0.3 0.4 0.5 0.7 0.7q0.2 0.2 0.5 0.3c0.2 0.1 0.3 0.2 0.5 0.2q0.2 0.1 0.4 0.1c0.1 0 0.1 0 0.3 0 0.1 0 0.1 0 0.3-0.1q0.1 0 0.3 0 0.6-0.3 0.9-0.6c0.6-0.5 0.9-1.1 1.2-1.6 0.6-1.1 1-2.2 1.3-3.3 0.7-2.3 1.3-4.6 1.7-7 1-4.8 1.7-9.8 2.5-14.9 0.4-2.6 0.8-5.2 1.3-7.9q0.4-2 0.8-3.9 0.3-1 0.6-2c0.2-0.6 0.4-1.2 0.7-1.7q0.1-0.2 0.2-0.4 0.1-0.2 0.2-0.2 0.1 0.1 0.2 0.2 0.3 0.4 0.5 0.8 0.4 0.9 0.7 1.9 0.4 0.9 0.6 2c0.8 2.7 1.3 5.6 1.9 8.5 1.1 5.8 2 11.8 3 18q0.7 4.7 1.5 9.4c0.5 3.2 1.1 6.4 1.9 9.7q0.2 1.2 0.6 2.4 0.3 1.3 0.8 2.5 0.2 0.7 0.6 1.3 0.2 0.4 0.5 0.7c0.2 0.3 0.4 0.5 0.8 0.8 0.3 0.1 0.5 0.2 0.9 0.2 0.6 0 0.2 0.1 0.8-0.1 0.4-0.1 0.5-0.3 0.7-0.4q0.2-0.2 0.4-0.4c0.4-0.5 0.6-1 0.8-1.4 0.4-0.9 0.6-1.7 0.9-2.6q0.3-1.3 0.5-2.5 0.6-2.6 1-5.2 0.7-5.1 1.3-10.4 0.6-5.2 1.1-10.6c0.6-7.1 1.3-14.4 1.9-21.8q0.5-5.5 1-11.2c0.3-3.7 0.7-7.5 1.1-11.3q0.3-2.8 0.8-5.6 0.1-0.9 0.2-1.7 0.4 2.3 0.7 4.6c0.4 3.9 0.8 7.8 1.1 11.8q0.5 5.9 1 12 0.5 6.1 1 12.2c0.4 4.1 0.8 8.2 1.3 12.3q0.3 3.1 0.8 6.3 0.2 1.6 0.6 3.2 0.2 0.8 0.4 1.6c0.1 0.6 0.3 1.1 0.6 1.8 0.1 0.3 0.3 0.6 0.6 1.1 0.2 0.2 0.4 0.4 0.8 0.7 0.3 0.3 1.4 0.6 1.7 0.4 1.1-0.2 1.3-0.5 1.6-0.7q0.4-0.4 0.5-0.7c0.3-0.4 0.4-0.7 0.6-1q0.3-0.9 0.6-1.8 0.2-0.8 0.4-1.6c0.5-2.1 0.8-4.2 1.1-6.4 0.7-4.2 1.2-8.4 1.7-12.7 0.5-4.2 1-8.4 1.6-12.7 0.3-2.1 0.6-4.2 1-6.2q0.1-0.2 0.1-0.4 0.5 2.8 0.8 5.6c0.6 4.3 1 8.6 1.4 13q0.6 6.6 1.1 13.2c0.7 8.8 1.4 17.7 2.1 26.6q0.3 3.4 0.6 6.7 0.4 3.4 0.8 6.8c0.2 1.2 0.3 2.3 0.6 3.5 0.1 0.6 0.2 1.2 0.4 1.9q0.1 0.3 0.2 0.6 0.1 0.3 0.3 0.7c0.2 0.3 0.3 0.6 1.3 1.3 1.2 1.2 3.5-0.2 3.7-0.7 0.4-0.5 0.5-0.7 0.6-1q0.1-0.4 0.2-0.6 0.2-0.6 0.3-1.1 0.2-0.9 0.3-1.8 0.3-1.8 0.5-3.5 0.4-3.4 0.6-6.8 0.3-3.4 0.5-6.8 0.5-6.8 1-13.6c0.3-4.5 0.7-9.1 1.1-13.5q0.1-1 0.2-1.8 0.2 1.1 0.3 2.3c0.7 4.5 1.3 9.1 2 13.6 0.4 2.3 0.8 4.6 1.3 7q0.3 1.65 0.9 3.6 0.1 0.4 0.3 0.9 0.2 0.5 0.5 1.1 0.1 0.3 0.3 0.7c0.2 0.2 0.4 0.5 0.7 0.8 0.3 0.3 0.8 0.8 1.8 1 0.8 0.3 2 0 2.7-0.5 0.6-0.4 0.9-0.7 1.1-1 0.2-0.3 0.3-0.5 0.5-0.8 0.2-0.4 0.3-0.8 0.5-1.1 0.2-0.7 0.4-1.4 0.5-2 0.3-1.2 0.6-2.4 0.8-3.6q0.45-3.45 0.9-6.9c0.5-4.7 1-9.2 1.4-13.8 0.5-4.6 0.9-9.1 1.5-13.6q0.1-1.2 0.3-2.5 0.5 2.3 0.9 4.6 1.05 6.75 2.1 13.5c0.7 4.5 1.4 9 2.2 13.6q0.3 1.7 0.7 3.4 0.4 1.7 0.8 3.5 0.3 0.9 0.6 1.8 0.1 0.5 0.3 1 0.2 0.5 0.5 1.1 0.2 0.3 0.4 0.7c0.2 0.2 0.4 0.5 0.7 0.9 0.4 0.3 0.9 0.7 1.9 1.1 1 0.3 2.2 0.1 3.1-0.4 0.7-0.5 1.1-0.9 1.3-1.2q0.4-0.5 0.6-0.9c0.2-0.5 0.4-0.9 0.5-1.2 0.3-0.8 0.4-1.4 0.6-2q0.2-1 0.4-1.9 0.3-1.7 0.5-3.5 0.5-3.4 0.8-6.8c0.5-4.6 0.9-9 1.4-13.5q0-0.2 0-0.4 0.3 1.8 0.7 3.7c0.4 2.2 0.8 4.4 1.3 6.7 0.2 1.1 0.5 2.2 0.8 3.4 0.2 0.6 0.4 1.3 0.7 1.9q0.2 0.5 0.5 1.2 0.2 0.3 0.4 0.7c0.2 0.2 0.4 0.5 0.8 0.9 0.4 0.4 0.9 0.9 1.9 1.2 1.5 0.2 2 0.2 3.3-0.4 0.9-0.4 1.2-0.9 1.5-1.2q0.4-0.5 0.6-0.9c0.3-0.5 0.5-0.9 0.6-1.3q0.2-0.5 0.4-1 0.3-1 0.5-1.9 0.2-0.9 0.3-1.8c0.5-2.3 0.7-4.5 1-6.7q0.4-3.3 0.7-6.6 0.6-6.6 1.1-13.1 0.4-5.8 0.9-11.5 0 0.1 0 0.2c0.8 8.2 1.6 16.3 2.4 24.4 0.8 8 1.6 16 2.5 23.9 0.5 4 1 7.9 1.8 11.8q0.2 1.5 0.6 3.1 0.2 0.7 0.4 1.5c0.1 0.6 0.3 1.1 0.5 1.7q0.1 0.2 0.2 0.5 0.1 0.2 0.3 0.5c0.1 0.2 0.2 0.4 0.3 0.7 0.2 0.2 0.4 0.5 0.7 0.8 0.3 0.3 0.8 0.8 1.8 1.1 1.4 0.3 1.8 0.4 3.1-0.3 0.8-0.4 1.1-0.8 1.4-1.1q0.3-0.4 0.5-0.8c0.2-0.4 0.4-0.8 0.5-1.1q0.2-0.5 0.3-0.9 0.3-0.9 0.5-1.6 0.3-1.6 0.6-3.1 0.2-1.4 0.4-2.9 0.4-2.9 0.8-5.7 0.6-5.7 1.1-11.3c0.7-7.4 1.3-14.6 2-21.7q0.2-1.7 0.4-3.3 0 0.1 0 0.2 0.6 5.1 1.3 9.9c0.4 3.3 0.8 6.6 1.4 9.8q0.2 1.3 0.5 2.5c0.2 0.8 0.4 1.6 0.6 2.5q0.2 0.7 0.5 1.4 0.2 0.4 0.4 0.8c0.1 0.3 0.3 0.6 0.6 1q0.3 0.3 0.7 0.6 0.6 0.45 1.5 0.6c0.8 0.1 1.1-0.1 1.8-0.3 0.5-0.2 0.7-0.5 1-0.7 0.4-0.4 0.6-0.7 0.7-1q0.3-0.5 0.4-0.8 0.3-0.7 0.5-1.4 0.2-0.6 0.4-1.2 0.3-1.3 0.5-2.4 0.5-2.4 0.8-4.7c0.5-3 0.9-6 1.3-8.9 0.5-3 0.9-5.8 1.5-8.6q0.2-0.9 0.4-1.8 0.2 0.6 0.4 1.2 0.5 2 0.9 3.9c0.6 2.6 1 5.2 1.5 7.8 1 5.1 1.9 10.1 3 14.9q0.4 1.8 0.9 3.5 0.3 0.9 0.6 1.8c0.2 0.6 0.5 1.2 0.8 1.9 0.2 0.3 0.4 0.6 0.7 1q0.2 0.2 0.6 0.5c0.3 0.2 0.7 0.4 1.2 0.5 0.3 0 0.7 0 0.6 0 0.1 0 0.7-0.2 0.8-0.3q0.3-0.1 0.5-0.3 0.2-0.2 0.3-0.3c0.3-0.5 0.5-0.8 0.6-1.2q0.45-0.9 0.6-1.8 0.3-0.9 0.4-1.7c0.5-2.3 0.8-4.4 1.2-6.4 0.4-2.1 0.8-4.1 1.3-5.9 0.6-1.9 1.2-3.6 2.1-5.1q0.7-1.1 1.6-1.9 0.4-0.4 0.9-0.7 0.4-0.3 0.9-0.5c0.1 0 0.2 0 0.1 0l0.2-0.1 0.3-0.1h0.2 0.1q0.1 0 0.2 0h0.2q0.1 0 0.3 0 0.2 0 0.5 0c0.7 0.1 1.4 0.4 2.1 0.7q1.1 0.5 2.2 1.1 1 0.6 2 1.2 2.1 1.1 4.1 2.1 2 0.9 3.9 1.5 2 0.6 3.8 1 0.4 0.1 0.9 0.2h0.2 0.2q0.2 0.1 0.4 0.1c0.6 0.1 1.2 0.1 1.7 0.2 2.2 0.2 4.1 0.2 5.8 0.1q2.5-0.1 4.2-0.4 1.6-0.3 2.5-0.5 0.8-0.2 0.8-0.2zm-60.2-19.7zm-9.3 29.8q-0.1 0 0-0.1zm-8.6-36.1q-0.1-0.1 0 0zm-10.6 59.6q-0.1 0 0 0zm-13.7-87.9zm-20.6 76zm-22 1.4q0 0.1 0 0.1 0 0 0-0.1zm-9-35.3q0-0.1 0 0zm105.1 29.2z"/>
						</g>
					</g>
				</g>
			</g>
		</g>
	</g>
</svg>